<?xml version="1.0" encoding="utf-8"?>
<!-- Generator: Adobe Illustrator 24.1.2, SVG Export Plug-In . SVG Version: 6.00 Build 0)  -->
<svg version="1.1" id="Слой_1" xmlns:xodm="http://www.corel.com/coreldraw/odm/2003"
	 xmlns="http://www.w3.org/2000/svg" xmlns:xlink="http://www.w3.org/1999/xlink" x="0px" y="0px" viewBox="0 0 161 82"
	 style="enable-background:new 0 0 161 82;" xml:space="preserve">
<style type="text/css">
	.st0{fill-rule:evenodd;clip-rule:evenodd;fill:#2B6AA1;}
	.st1{fill:none;}
	.st2{fill-rule:evenodd;clip-rule:evenodd;fill:url(#SVGID_1_);}
	.st3{fill-rule:evenodd;clip-rule:evenodd;fill:url(#SVGID_2_);}
	.st4{clip-path:url(#SVGID_4_);}
	.st5{fill-rule:evenodd;clip-rule:evenodd;fill:url(#_x31__3_);}
	.st6{fill:none;stroke:#FEFEFE;stroke-width:0.6777;stroke-miterlimit:97.1022;}
	.st7{fill:none;stroke:#FEFEFE;stroke-width:0.6777;stroke-linecap:round;stroke-linejoin:round;stroke-miterlimit:97.1022;}
	.st8{fill-rule:evenodd;clip-rule:evenodd;fill:url(#SVGID_5_);}
	.st9{clip-path:url(#SVGID_7_);}
	.st10{fill:url(#_x31__4_);}
	.st11{fill-rule:evenodd;clip-rule:evenodd;fill:#1F5F90;}
	.st12{fill:none;stroke:#2B6AA1;stroke-width:0.5506;stroke-miterlimit:97.1022;}
	.st13{fill:#2C7DB0;}
	.st14{fill-rule:evenodd;clip-rule:evenodd;fill:url(#SVGID_8_);}
	.st15{fill:none;stroke:#3B9ED4;stroke-width:0.5506;stroke-miterlimit:97.1022;}
	.st16{fill:url(#SVGID_9_);}
	.st17{fill:#FEFEFE;}
	.st18{fill-rule:evenodd;clip-rule:evenodd;fill:url(#SVGID_10_);}
	.st19{clip-path:url(#SVGID_12_);}
	.st20{fill-rule:evenodd;clip-rule:evenodd;fill:url(#_x31__5_);}
	.st21{fill:none;stroke:#3B9ED4;stroke-width:0.5506;stroke-miterlimit:97.1022;stroke-opacity:0.502;}
	.st22{fill:none;stroke:#14436D;stroke-width:0.5506;stroke-miterlimit:97.1022;}
	.st23{fill-rule:evenodd;clip-rule:evenodd;fill:#CCEFFF;}
	.st24{fill-rule:evenodd;clip-rule:evenodd;fill:#FEFEFE;}
</style>
<g id="Layer_x0020_1">
	<g id="_1618849499968">
		<path class="st0" d="M89.3,76.6l69.4-35.1c2.1-1.1,2.1-1.2,1.9-2.2c0-0.3-0.8-0.2-1.6-0.4c-32.8-9.5-50.6-27.9-73.5-34.6
			c0,0-1.4-0.8-9.3,3.3l-49,25.3c-7.1-2.4-5.8,1.9-6.4,3.3c0,0-17.8,9.4-19,10.4c-1.2,1-1.4,4.2-1.4,5.5c0,1.3,0,6.4,0.2,8.4
			c0.2,1.5,0.8,1.9,2,2.5c1.4,0.4,52.8,15.3,57.7,16.8C71.8,83.4,76.6,82.6,89.3,76.6L89.3,76.6z"/>
		<path class="st1" d="M7.7,56.2L55.8,70c15.5,4.2,17.9,4.8,31.9-1.9l64.1-32.2"/>
		
			<radialGradient id="SVGID_1_" cx="-165.6927" cy="358.0369" r="21.7" gradientTransform="matrix(5.5877 0 0 -5.5877 1004.7904 2072.249)" gradientUnits="userSpaceOnUse">
			<stop  offset="0" style="stop-color:#0A2740"/>
			<stop  offset="1" style="stop-color:#164B7A"/>
		</radialGradient>
		<path class="st2" d="M89.3,75.9L158.4,41c2.9-1.5,2.9-1.7,0.3-2.6C127,29.1,123,14.7,85.5,3.6c0,0-1.4-0.8-9.3,3.3l-49,25.3
			c-7.1-2.5-5.8,1.9-6.4,3.3c0,0-17.3,9.4-18.6,10.5c-1.2,1-1.3,4.2-1.3,5.5c0,1.3-0.1,6.2,0.2,8.3c0.2,1.5,0.6,2,1.8,2.6
			c1.4,0.4,52.6,15.3,57.5,16.7C71.8,82.7,76.6,81.9,89.3,75.9z"/>
		
			<linearGradient id="SVGID_2_" gradientUnits="userSpaceOnUse" x1="-170.991" y1="342.0629" x2="-134.411" y2="342.0629" gradientTransform="matrix(4.2355 0 0 -4.2355 726.6358 1501.1653)">
			<stop  offset="0" style="stop-color:#A3E3FF"/>
			<stop  offset="0.102" style="stop-color:#CCEFFF"/>
			<stop  offset="0.3098" style="stop-color:#BDE6FC"/>
			<stop  offset="0.4588" style="stop-color:#E8F8FF"/>
			<stop  offset="0.5804" style="stop-color:#B0E7FF"/>
			<stop  offset="0.6902" style="stop-color:#C7EDFF"/>
			<stop  offset="0.9216" style="stop-color:#C4EAFF"/>
			<stop  offset="1" style="stop-color:#7ED6FC"/>
		</linearGradient>
		<path class="st3" d="M6,62c-3.2-0.9-3.9-3.1-3.6-8.6c0.1-5.2,0.1-7.4,3.3-6.5l50.9,15h0.1c7.2,1.9,11.6,3.2,14.9,3
			c3.3-0.1,7.2-0.5,13.5-3.5c0,0,0.1-0.1,0.2-0.1l69.5-35.4c1.6-0.8,2.2-0.1,2.1,1.5l-0.2,10.3c0,2.1-0.3,2.4-2.3,3.4l-63.8,32
			c-0.1,0.1-0.3,0.2-0.4,0.3c-7.8,3.7-12.5,5.5-17.8,5.6c-5.2,0.2-10-1.1-18.2-3.3c-0.1,0-0.2,0-0.2-0.1C54.2,75.7,6,62,6,62z"/>
		<g>
			<defs>
				<path id="SVGID_3_" d="M6,62c-3.2-0.9-3.9-3.1-3.6-8.6c0.1-5.2,0.1-7.4,3.3-6.5l50.9,15h0.1c7.2,1.9,11.6,3.2,14.9,3
					c3.3-0.1,7.2-0.5,13.5-3.5c0,0,0.1-0.1,0.2-0.1l69.5-35.4c1.6-0.8,2.2-0.1,2.1,1.5l-0.2,10.3c0,2.1-0.3,2.4-2.3,3.4l-63.8,32
					c-0.1,0.1-0.3,0.2-0.4,0.3c-7.8,3.7-12.5,5.5-17.8,5.6c-5.2,0.2-10-1.1-18.2-3.3c-0.1,0-0.2,0-0.2-0.1C54.2,75.7,6,62,6,62z"/>
			</defs>
			<clipPath id="SVGID_4_">
				<use xlink:href="#SVGID_3_"  style="overflow:visible;"/>
			</clipPath>
			<g class="st4">
				<g>
					
						<radialGradient id="_x31__3_" cx="-173.1405" cy="355.641" r="9.9" gradientTransform="matrix(5.2837 0 0 -5.2837 953.4691 1943.3022)" gradientUnits="userSpaceOnUse">
						<stop  offset="0" style="stop-color:#FEFEFE"/>
						<stop  offset="1" style="stop-color:#3B9ED4"/>
					</radialGradient>
					<path id="_x31_" class="st5" d="M74.7,65.7c0,0-41.8-18.3-51.9-19.5c-10.1-1.2-19.1-8.9-26.3,0.4C-19.9,68,5,67.3,4.5,58.5
						c-0.5-8.4,3.8-8.2,11-6.7C29.5,54.9,67,70.1,74.7,65.7z"/>
					<path class="st6" d="M157.4,38.3L82.2,76.5c0,0-3.6,1.7-7,1.9c-3.3,0.1-5,0.3-9.2-0.6c-4.3-0.9-61-17.5-61-17.5"/>
					<path class="st7" d="M157.4,36.8L82.2,75.1c0,0-3.6,1.8-7,1.9c-3.3,0.2-5,0.3-9.2-0.6C61.7,75.5,4.2,58.8,4.2,58.8"/>
					<path class="st7" d="M157.4,35.1L82.2,73.3c0,0-3.6,1.7-7,1.9c-3.3,0.1-5,0.3-9.2-0.6c-4.3-0.9-62-17.8-62-17.8"/>
					<path class="st7" d="M157.4,33L82.2,71.3c0,0-3.6,1.7-7,1.9c-3.3,0.2-5,0.3-9.2-0.6C61.7,71.7,4.1,55.1,4.1,55.1"/>
					<path class="st7" d="M157.4,31.3L82.2,69.5c0,0-3.6,1.8-7,1.9c-3.3,0.1-5,0.3-9.2-0.6C61.7,69.9,4.7,53.5,4.7,53.5"/>
					<path class="st7" d="M157.4,29.2L82.2,67.5c0,0-3.6,1.7-7,1.9c-3.3,0.1-5,0.3-9.2-0.6c-4.3-0.9-60-17-60-17"/>
					<path class="st7" d="M157.4,27.4L82.2,65.7c0,0-3.6,1.8-7,1.9c-3.3,0.2-5,0.3-9.2-0.6C61.7,66.2,9.6,50.8,9.6,50.8"/>
				</g>
			</g>
		</g>
		<path class="st1" d="M6,62c-3.2-0.9-3.9-3.1-3.6-8.6c0.1-5.2,0.1-7.4,3.3-6.5l50.9,15h0.1c7.2,1.9,11.6,3.2,14.9,3
			c3.3-0.1,7.2-0.5,13.5-3.5c0,0,0.1-0.1,0.2-0.1l69.5-35.4c1.6-0.8,2.2-0.1,2.1,1.5l-0.2,10.3c0,2.1-0.3,2.4-2.3,3.4l-63.8,32
			c-0.1,0.1-0.3,0.2-0.4,0.3c-7.8,3.7-12.5,5.5-17.8,5.6c-5.2,0.2-10-1.1-18.2-3.3c-0.1,0-0.2,0-0.2-0.1C54.2,75.7,6,62,6,62z"/>
		
			<radialGradient id="SVGID_5_" cx="-164.4303" cy="379.0173" r="17.96" gradientTransform="matrix(8.0669 0 0 -8.067 1463.9506 3120.0317)" gradientUnits="userSpaceOnUse">
			<stop  offset="0" style="stop-color:#FEFEFE"/>
			<stop  offset="0.251" style="stop-color:#DCF3FF"/>
			<stop  offset="0.4314" style="stop-color:#C7EDFF"/>
			<stop  offset="0.6118" style="stop-color:#97D2F0"/>
			<stop  offset="0.7608" style="stop-color:#79C1E7"/>
			<stop  offset="1" style="stop-color:#226798"/>
		</radialGradient>
		<path class="st8" d="M90.3,59.5l66.3-33.8L85.7,5L4.5,46.6l50,15.4C72.5,67,76.9,66,90.3,59.5z"/>
		<g>
			<defs>
				<path id="SVGID_6_" d="M90.3,59.5l66.3-33.8L85.7,5L4.5,46.6l50,15.4C72.5,67,76.9,66,90.3,59.5z"/>
			</defs>
			<clipPath id="SVGID_7_">
				<use xlink:href="#SVGID_6_"  style="overflow:visible;"/>
			</clipPath>
			<g class="st9">
				<g>
					
						<linearGradient id="_x31__4_" gradientUnits="userSpaceOnUse" x1="-140.2536" y1="336.2545" x2="-164.5936" y2="355.8645" gradientTransform="matrix(4.2355 0 0 -4.2355 726.6358 1501.1653)">
						<stop  offset="0" style="stop-color:#4DAFE3"/>
						<stop  offset="0.302" style="stop-color:#3799CC"/>
						<stop  offset="1" style="stop-color:#15718F"/>
					</linearGradient>
					<path id="_x31__1_" class="st10" d="M136.3,30.5l-6.6-1.8l-3,1.5l6.5,1.9L136.3,30.5z M123.9,24.1l-2.9,1.5l8.7,2.5l2.9-1.5
						L123.9,24.1z M120.2,26l-2.9,1.5l8.6,2.4l3-1.5C128.9,28.4,120.2,26,120.2,26z M116.4,27.9l-2.8,1.4l8.6,2.4l2.8-1.4
						C125.1,30.3,116.4,27.9,116.4,27.9z M112.8,29.8l-2.8,1.4l8.7,2.5l2.8-1.4C121.4,32.2,112.8,29.8,112.8,29.8z M109.2,31.6
						l-3,1.5l8.7,2.5l3-1.5L109.2,31.6z M105.5,33.5l-3,1.5l8.7,2.4l2.9-1.5C114.1,35.9,105.5,33.5,105.5,33.5z M101.7,35.4
						l-2.9,1.5l8.6,2.4l2.9-1.5C110.3,37.9,101.7,35.4,101.7,35.4z M94.1,39.3l-3,1.5l8.6,2.4l3-1.5C102.7,41.8,94.1,39.3,94.1,39.3
						z M90.3,41.3l-3,1.5l8.6,2.4l3-1.5L90.3,41.3z M86.6,43.2l-3,1.5l8.6,2.5l3-1.5C95.2,45.6,86.6,43.2,86.6,43.2z M82.8,45.1
						l-3,1.5l8.6,2.4l3-1.5L82.8,45.1z M75.3,48.9l-3,1.5l8.6,2.5l2.9-1.5C83.9,51.3,75.3,48.9,75.3,48.9z M71.5,50.8l-3,1.5
						l8.6,2.4l3-1.5C80.2,53.3,71.5,50.8,71.5,50.8z M67.8,52.8l-3,1.5l8.6,2.4l2.9-1.5C76.4,55.2,67.8,52.8,67.8,52.8z M64,54.7
						l-3,1.5l8.6,2.4l2.9-1.5C72.6,57.1,64,54.7,64,54.7z M60.3,56.6L60.3,56.6L60.3,56.6L17.5,44.5l-0.7-0.2l0.6-0.3l3.8-1.9l0.1,0
						l0,0l3.1-1.6l0,0l0.6-0.3l3.8-1.9l0.1,0l0,0l3.1-1.5l-0.1,0l0.6-0.3l3.8-1.9l0.1,0l0,0l3.1-1.5l0,0l0.6-0.3l3.8-1.9l0.1,0h0
						l3-1.5l-0.1,0l0.6-0.3l3.9-1.9l0.1,0l0,0l3.6-1.8l0.1,0h0l0.1,0l3.9-1.9l0.1,0l0,0l3-1.5l-0.1,0l0.6-0.3l3.8-1.9l0.1-0.1l0,0
						l2.8-1.4l0,0l0.6-0.3l3.8-1.9l0.1,0l0,0l3-1.5l-0.1,0l0.6-0.3l3.9-1.9l0.1,0l0,0l3.6-1.8l0.1,0h0.1l58.9,16.6l0.7,0.2l-0.6,0.3
						l-3.8,1.9l-0.1,0l0,0l-3,1.5l0.1,0l-0.6,0.3l-3.9,1.9l-0.1,0.1l0,0l-2.8,1.4h0l-0.7,0.3l-3.8,1.9l-0.1,0l0,0l-3,1.5l0.1,0
						l-0.6,0.3l-3.8,1.9l-0.1,0h0l-3.6,1.8l-0.1,0.1v0l-0.1,0.1l-3.8,1.9l-0.1,0l0,0l-3,1.5h0.1l-0.6,0.3l-3.9,1.9l-0.1,0l0,0
						l-3.1,1.6h0l-0.6,0.3l-3.9,1.9l-0.1,0l0,0l-3,1.5l0.1,0l-0.6,0.3l-3.8,1.9l-0.1,0.1v0L84.7,57h0l-0.6,0.3l-3.9,1.9l-0.1,0l0,0
						l-3.6,1.8l-0.1,0l-0.1,0L60.3,56.6L60.3,56.6z M60.3,56l3-1.5L21.3,42.7l-3,1.5C18.3,44.2,60.3,56,60.3,56z M64,54l2.9-1.5
						L25.1,40.8l-3,1.5C22.1,42.3,64,54,64,54z M67.8,52.1l3-1.5L29,38.9l-3,1.5L67.8,52.1z M71.6,50.2l2.9-1.5L32.8,37l-3,1.5
						L71.6,50.2z M79.1,46.4l2.9-1.5L40.3,33.1l-3,1.5L79.1,46.4z M82.9,44.4l3-1.5L44.1,31.2l-3,1.5C41.1,32.7,82.9,44.4,82.9,44.4
						z M86.6,42.5l2.9-1.5L47.9,29.3l-3,1.5C44.9,30.8,86.6,42.5,86.6,42.5z M90.3,40.6l2.9-1.5L51.6,27.4l-3,1.5L90.3,40.6z
						 M98,36.7l3-1.5L59.4,23.5l-3,1.5L98,36.7z M101.7,34.8l3-1.5L63.3,21.6l-3,1.5L101.7,34.8z M105.5,32.9l3-1.5L67,19.7l-3,1.5
						C64,21.2,105.5,32.9,105.5,32.9z M109.2,31l2.8-1.4L70.6,17.9l-2.8,1.4C67.8,19.3,109.2,31,109.2,31z M112.9,29.1l2.8-1.4
						L74.3,16.1l-2.8,1.4L112.9,29.1z M116.5,27.2l3-1.5L78.1,14.1l-3,1.5C75.1,15.6,116.5,27.2,116.5,27.2z M120.2,25.3l3-1.5
						L81.8,12.2l-3,1.5C78.8,13.7,120.2,25.3,120.2,25.3z M133.4,26.7l-3,1.5l6.5,1.8l3-1.5L133.4,26.7L133.4,26.7z M125.9,30.5
						l-2.8,1.4l6.4,1.8l2.8-1.4C132.4,32.4,125.9,30.5,125.9,30.5z M122.2,32.4l-2.8,1.4l6.4,1.8l2.8-1.4
						C128.7,34.2,122.2,32.4,122.2,32.4z M118.6,34.3l-3,1.5l6.4,1.8l3-1.5C125,36,118.6,34.3,118.6,34.3z M114.9,36.2l-3,1.5
						l6.4,1.8l3-1.5C121.4,38,114.9,36.2,114.9,36.2z M111.1,38.1l-3,1.5l6.4,1.8l3-1.5C117.5,39.9,111.1,38.1,111.1,38.1z
						 M103.5,42l-2.9,1.5l6.2,1.7l3-1.5L103.5,42z M99.8,43.9l-2.9,1.5l6.2,1.7l3-1.5C106.1,45.7,99.8,43.9,99.8,43.9z M96,45.8
						l-2.9,1.5l6.1,1.7l3-1.5C102.2,47.6,96,45.8,96,45.8z M92.2,47.7l-3,1.5l6.1,1.7l3-1.5C98.4,49.5,92.2,47.7,92.2,47.7z
						 M84.7,51.5l-3,1.5l6.1,1.7l3-1.5L84.7,51.5z M80.9,53.5L78,55l6.1,1.7l3-1.5C87,55.2,80.9,53.5,80.9,53.5z M77.2,55.4l-3,1.5
						l6,1.7l3-1.5C83.2,57.1,77.2,55.4,77.2,55.4z M73.4,57.3l-3,1.5l5.9,1.7l3-1.5C79.4,59,73.4,57.3,73.4,57.3z"/>
				</g>
			</g>
		</g>
		<path class="st1" d="M90.3,59.5l66.3-33.8L85.7,5L4.5,46.6l50,15.4C72.5,67,76.9,66,90.3,59.5z"/>
		<path class="st11" d="M21.2,35.3c0,0-1.3,7.5-1.8,9.6c-0.5,2-2.8,6-3.4,6.4c-0.7,0.4-10.2-2.8-12.3-3.3c-2.2-0.5-1.7-0.7-2.2-0.1
			c-0.3,0.3-0.3-0.4,0.6-1.5c0.5-0.6,1.1-0.9,2.2-1.5C7.2,43,21.2,35.3,21.2,35.3z"/>
		<path class="st12" d="M84.8,3c-0.9,0-1.6,0.2-2.5,0.6L27.4,32.2"/>
		<path class="st12" d="M2.1,46.7c0,0-0.9,0.7-1.3,4.1C0.4,54.1,0.5,57,1,60.7"/>
		<polygon class="st13" points="21.2,36.8 3,46.8 2.1,46.7 20.9,36.3 		"/>
		<path class="st13" d="M2.2,47.1c-0.1,0-0.2-0.2-0.2-0.3c0-0.1,0.2-0.2,0.3-0.2c0,0,10.3,3.3,13.3,3.8c0.2,0,0.3,0.1,0.3,0.3
			c0,0.1-0.2,0.3-0.3,0.2C12.6,50.5,2.3,47.1,2.2,47.1z"/>
		
			<linearGradient id="SVGID_8_" gradientUnits="userSpaceOnUse" x1="-148.4883" y1="338.89" x2="-151.0683" y2="359.84" gradientTransform="matrix(4.2355 0 0 -4.2355 726.6358 1501.1653)">
			<stop  offset="0" style="stop-color:#164B7A"/>
			<stop  offset="0.349" style="stop-color:#1F5F8F"/>
			<stop  offset="1" style="stop-color:#3B9ED4"/>
		</linearGradient>
		<path class="st14" d="M27.6,32.2c0,0,18.1,4.6,27,5.8c2.2,0.3,31.5-2.2,54.4-9.3c21.3-6.5,36.3-17.5,39-19.4
			c4.2-3.1,9.1-9.6,7.3-9c-3.4,1.1-10,3-17.9,4.5c-6.8,1.4-14.5,2.6-21.9,2.9c-11.5,0.6-22-1.7-27.1-4c-1.5-0.7-2.8-1.1-4-1.1
			c-1.3,0.1-2.5,0.8-4.5,1.8C76.1,6.3,27.6,32.2,27.6,32.2z"/>
		<path class="st15" d="M155.5,0.6c0-0.2,0.2-0.6-2.8,0.4c-20.2,6.6-39.7,9.2-58.5,4.7c-3.3-0.8-5.1-1.7-7.8-2.5
			c-0.9-0.3-1-0.2-1.4,0.1"/>
		
			<linearGradient id="SVGID_9_" gradientUnits="userSpaceOnUse" x1="-151.0261" y1="353.0514" x2="-165.1261" y2="347.3814" gradientTransform="matrix(4.2355 0 0 -4.2355 726.6358 1501.1653)">
			<stop  offset="0" style="stop-color:#3B9ED4"/>
			<stop  offset="1" style="stop-color:#2A79AB"/>
		</linearGradient>
		<path class="st16" d="M85.3,2.8c0.2-0.1,0.3,0,0.4,0.1c0.1,0.1,0,0.3-0.1,0.3C74.1,9.1,61.7,15.6,49.3,22.1
			c-6.9,3.7-13.9,7.3-20.5,10.8c-0.2,0.1-0.3,0-0.4-0.1c-0.1-0.1,0-0.3,0.1-0.3c6.7-3.5,13.6-7.1,20.5-10.8
			C61.4,15.1,73.8,8.6,85.3,2.8z"/>
		<path class="st17" d="M156.6,26L82.3,63.7l0,0c0,0-3.7,1.8-7.2,1.9l-0.6,0c-3,0.1-4.6,0.2-8.6-0.6c-4.2-0.9-48.5-14.2-48.6-14.2
			l0.2-0.5c0.1,0,44.3,13.3,48.6,14.2c3.9,0.8,5.6,0.8,8.5,0.6l0.6,0c3.3-0.1,6.8-1.8,6.9-1.9l74.3-37.8
			C156.4,25.5,156.6,26,156.6,26z"/>
		
			<linearGradient id="SVGID_10_" gradientUnits="userSpaceOnUse" x1="-156.5058" y1="338.8339" x2="-159.4458" y2="350.6139" gradientTransform="matrix(4.2355 0 0 -4.2355 726.6358 1501.1653)">
			<stop  offset="0" style="stop-color:#3B9ED4"/>
			<stop  offset="0.4588" style="stop-color:#247AA8"/>
			<stop  offset="0.5216" style="stop-color:#71C8F7"/>
			<stop  offset="0.5608" style="stop-color:#2D94CC"/>
			<stop  offset="0.651" style="stop-color:#98D1EE"/>
			<stop  offset="0.7686" style="stop-color:#C5EBFC"/>
			<stop  offset="1" style="stop-color:#FEFEFE"/>
		</linearGradient>
		<path class="st18" d="M16,51.2c0,0,2.7-3.4,3.7-7.8c3.4-14.7-2.2-13.1,12.6-10.1c6.6,1.4,23.3,2.5,39.1,1.8
			c11.1-0.5,31.8-4.6,27.1-3.6l-8.6,1.9C89.9,33.6,16,51.2,16,51.2z"/>
		<g>
			<defs>
				<path id="SVGID_11_" d="M16,51.2c0,0,2.7-3.4,3.7-7.8c3.4-14.7-2.2-13.1,12.6-10.1c6.6,1.4,23.3,2.5,39.1,1.8
					c11.1-0.5,31.8-4.6,27.1-3.6l-8.6,1.9C89.9,33.6,16,51.2,16,51.2z"/>
			</defs>
			<clipPath id="SVGID_12_">
				<use xlink:href="#SVGID_11_"  style="overflow:visible;"/>
			</clipPath>
			<g class="st19">
				<g>
					
						<linearGradient id="_x31__5_" gradientUnits="userSpaceOnUse" x1="-160.0811" y1="345.1742" x2="-160.1111" y2="343.4942" gradientTransform="matrix(4.2355 0 0 -4.2355 726.6358 1501.1653)">
						<stop  offset="0" style="stop-color:#3B9ED4"/>
						<stop  offset="1" style="stop-color:#104A6E"/>
					</linearGradient>
					<path id="_x31__2_" class="st20" d="M37.8,46l3.2-0.8c-0.1,0.3-0.2,0.7-0.3,1c-1,2.5-2.5,3.5-3,4l0,0c-0.1,0-0.1,0.1-0.2,0.1
						l0.3,0.5c0,0,0.1-0.1,0.2-0.1l0,0c0.7-0.4,2.2-1.5,3.3-4.2c0.9-2.4,1.1-5.5,1.1-6.6c0.9,0.1,1.8,0.2,2.7,0.2
						c0,1.1-0.2,4.1-1,6.4c-1,2.5-2.5,3.6-3.1,4l0,0c0,0-0.1,0.1-0.2,0.1l0.3,0.4c0,0,0.1,0,0.1-0.1l0,0c0.7-0.5,2.3-1.5,3.3-4.2
						c0.9-2.3,1-5.3,1.1-6.5c0.9,0,1.7,0.1,2.6,0.2c0,1.1-0.1,4.1-1,6.4c-1,2.5-2.4,3.6-3,4c-0.1,0-0.1,0.1-0.2,0.1l0.3,0.4l0.2-0.1
						c0.7-0.5,2.2-1.5,3.3-4.2c0.9-2.4,1.1-5.4,1.1-6.5c0.9,0,1.8,0.1,2.7,0.1c0,1-0.1,4.1-1,6.4c-1,2.5-2.5,3.5-3.1,3.9
						c0,0-0.1,0.1-0.2,0.1l0.3,0.5l0.2-0.1c0.7-0.5,2.2-1.5,3.3-4.2c0.9-2.4,1-5.5,1.1-6.6h0.3c1.1,0,2.1,0,3.1,0
						c0,0.9-0.1,4.1-1.1,6.5c-1,2.5-2.4,3.6-3,4c0,0-0.1,0-0.2,0.1l0.3,0.4l0.2-0.1c0.7-0.4,2.2-1.5,3.3-4.2c0.6-1.7,0.9-3.7,1-5.1
						l3.9-0.2l0-1.6h0.2c3.4-0.2,6.9-0.6,10.4-1.1l-0.1-0.6c-6,1.1-12,1.4-18,1.3c-5.5-0.1-11.1-0.7-16.8-1.5v0h-0.2
						c-0.4,0-0.8-0.1-1.1-0.2c-0.2,0-0.6-0.1-1-0.3c-0.5-0.1-1-0.3-1.1-0.2c-0.2,0-0.3,0.1-0.3,0.3l0,0c0,2.1-0.1,4.3-0.8,6.1
						c-0.7,1.9-1.9,3.4-4,4.5l0.2,0.5c2.3-1.1,3.6-2.8,4.3-4.8c0.7-1.9,0.8-3.9,0.8-6c0.2,0.1,0.5,0.1,0.8,0.2
						c0.4,0.1,0.9,0.2,1.1,0.3l0.8,0.1c0,1.1-0.1,4-1,6.3c-1,2.5-2.4,3.5-3,3.9l0,0c-0.1,0.1-0.1,0.1-0.2,0.1l0.3,0.5
						c0,0,0.1-0.1,0.2-0.1l0,0c0.7-0.4,2.2-1.5,3.3-4.2c0.9-2.3,1.1-5.2,1.1-6.4c1,0.1,1.9,0.3,2.9,0.4c0,1.1-0.1,4.1-1,6.4
						c-1,2.5-2.5,3.5-3.1,3.9c0,0-0.1,0.1-0.2,0.1l0.3,0.5l0.2-0.1C35.2,49.7,36.7,48.7,37.8,46L37.8,46z"/>
				</g>
			</g>
		</g>
		<path class="st1" d="M16,51.2c0,0,2.7-3.4,3.7-7.8c3.4-14.7-2.2-13.1,12.6-10.1c6.6,1.4,23.3,2.5,39.1,1.8
			c11.1-0.5,31.8-4.6,27.1-3.6l-8.6,1.9C89.9,33.6,16,51.2,16,51.2z"/>
		<path class="st21" d="M155.4,0.4c-1.2,3-5,6.1-9.7,9.5c-5.5,3.9-12.2,8-19,11.1c-8.6,4-16.9,6.8-21.3,8
			c-19.3,5.5-36.6,6.3-54.7,5.6c-18.1-0.6-25.2-3-25.2-3"/>
		<path class="st22" d="M2,47.2c0.6,0.3,9.6,2.8,12.1,3.4c1.5,0.5,2,0.3,2.4,0c1.6-1.8,2.7-5,3.3-7.2c0.6-2.5,1.6-9.7,1.7-11.4
			c0.1-1.7,3.5-0.6,4.6-0.3c3.3,0.8,6.4,1.4,9.7,1.9c21.9,3.2,42.7,2.2,59.7-1.4c16.6-3.5,33.3-10.5,44.6-17.7
			c8.1-5.2,15.6-11.4,15.5-14"/>
		<path class="st23" d="M15.9,51.2c0,0,2.7-2,3.7-7.7c1-5.5,1.8-11,1.9-11.6c0-0.3,0-1.3,4.4-0.3c2.2,0.6,5.7,1.3,11,2
			c5.3,0.7,12.5,1.4,22.1,1.8c19.3,0.9,35.4-2.9,35.4-2.9c-10.2,3-32.9,3.6-35.4,3.4c-9.7-0.4-16.8-1.1-22.1-1.8
			c-5.3-0.7-8.8-1.4-11.1-2c-0.6-0.2-3.6-1.1-3.7-0.3c0,0-0.9,5.8-1.9,11.6c-1.1,6-3.9,7.7-3.9,7.7C16.3,51.3,15.9,51.2,15.9,51.2z"
			/>
		<g>
			<path class="st24" d="M72.9,27.6c0.2,0,0.3,0.1,0.5,0.1c2.4-1.1,4.6-2.1,6.8-3.2c3.5,0.5,7.2,0.7,10.9,0.4
				c3.9-0.3,7.9-1.1,11.6-2.2c3-1,4.8-1.7,5.8-2.4c0.9-0.6,0.9-1.3,0.4-2.2c-0.8-1.4-3.2-2.2-6.7-2.8c-3.3-0.6-7.4-1.2-11.8-1.9
				c-1.6,0.9-3.3,1.8-4.9,2.7c1.5,0.3,3.1,0.6,4.7,0.8c1.2,0.2,2.2,0.3,3.2,0.5c1,0.1,1.9,0.3,3,0.6c3.4,0.7,4.5,1.5,3.1,2.5
				c-2.2,0.9-4.5,1.5-6.9,1.7c-2.4,0.3-4.9,0.1-7.5-0.3c1.9-1,3.6-2.1,5.4-3.1c-1.4-0.2-2.7-0.3-4-0.6c-1.3-0.2-2.5-0.4-3.7-0.7
				c-2.7,1.5-5.3,3-8,4.4c-2.6,1.4-5.3,2.9-8,4.4c1,0.2,2,0.4,3,0.6C71,27.2,72,27.4,72.9,27.6L72.9,27.6z"/>
			<path class="st24" d="M92.6,24.1c-3.1,0.2-6.1,0.3-8.9,0.3c-0.3,0.8-0.5,1.6-1,2.4c-0.5,0.8-1.1,1.5-1.8,2.2
				c1.4,0.1,2.9,0.3,4.5,0.2c1.8,0,3.7-0.3,6.1-0.6c0.2-0.4,0.5-1.1,0.8-1.8C92.4,25.9,92.5,25,92.6,24.1z"/>
		</g>
	</g>
</g>
</svg>
