<svg width="150" height="150" viewBox="0 0 396 396" fill="none" xmlns="http://www.w3.org/2000/svg">
<g>
<path fill-rule="evenodd" clip-rule="evenodd" d="M139.92 330.707L184.283 299.282V241.205L139.92 272.63V330.707Z" fill="#3B9ED4"/>
</g>
<g>
<path fill-rule="evenodd" clip-rule="evenodd" d="M192.361 253.575L124.704 302.962L121.174 297.487L188.831 248.101L192.361 253.575Z" fill="white"/>
<animate attributeName="opacity" values="0; 0; 0; 0; 0; 0; 0; 1; 1; 1; 1; 1; 1; 1; 1; 1; 1; 1; 1; 1" dur="2.3s" repeatCount="indefinite" id="another"/>
</g>
<g>
<path fill-rule="evenodd" clip-rule="evenodd" d="M193.673 267.811L126.015 317.196L122.486 311.722L190.143 262.336L193.673 267.811Z" fill="white"/>
<animate attributeName="opacity" values="0; 0; 0; 0; 0; 0; 0; 0; 1; 1; 1; 1; 1; 1; 1; 1; 1; 1; 1; 1" dur="2.3s" repeatCount="indefinite" id="another"/>
</g>
<g>
<path fill-rule="evenodd" clip-rule="evenodd" d="M196.443 280.883L128.786 330.268L125.257 324.793L192.913 275.408L196.443 280.883Z" fill="white"/>
<animate attributeName="opacity" values="0; 0; 0; 0; 0; 0; 0; 0; 0; 1; 1; 1; 1; 1; 1; 1; 1; 1; 1; 1" dur="2.3s" repeatCount="indefinite" id="another"/>
</g>
<g>
<path d="M186.021 302.029L141.659 333.453L138.182 327.96L182.545 296.536L186.956 299.976L186.021 302.029ZM186.956 241.899V299.976L181.61 298.589V240.512L182.545 238.458L186.956 241.899V241.899ZM138.182 269.883L182.545 238.458L186.021 243.952L141.659 275.376L137.247 271.936L138.182 269.883ZM137.247 330.013V271.936L142.594 273.323V331.4L141.659 333.453L137.247 330.013V330.013Z" fill="white"/>
</g>
<g>
<path fill-rule="evenodd" clip-rule="evenodd" d="M269.901 363.239L301.562 340.813C305.471 338.336 311.326 328.504 303.959 317.078L257.808 244.394L212.558 274.049L269.901 363.239V363.239Z" fill="#3B9ED4"/>
</g>
<g>
<path fill-rule="evenodd" clip-rule="evenodd" d="M266.804 258.238L215.515 294.47L213 290.232L264.289 254L266.804 258.238Z" fill="white"/>
<animate attributeName="opacity" values="0; 0; 0; 0; 0; 0; 0; 0; 0; 0; 0; 0; 0; 0; 1; 1; 1; 1; 1; 1" dur="2.3s" repeatCount="indefinite" id="another"/>
</g>
<g>
<path fill-rule="evenodd" clip-rule="evenodd" d="M274.581 266.587L218.207 308.071L215.266 303.334L271.64 261.85L274.581 266.587Z" fill="white"/>
<animate attributeName="opacity" values="0; 0; 0; 0; 0; 0; 0; 0; 0; 0; 0; 0; 0; 0; 0; 1; 1; 1; 1; 1" dur="2.3s" repeatCount="indefinite" id="another"/>
</g>
<g>
<path fill-rule="evenodd" clip-rule="evenodd" d="M277.983 278.589L221.609 320.073L218.668 315.336L275.042 273.852L277.983 278.589Z" fill="white"/>
<animate attributeName="opacity" values="0; 0; 0; 0; 0; 0; 0; 0; 0; 0; 0; 0; 0; 0; 0; 0; 1; 1; 1; 1" dur="2.3s" repeatCount="indefinite" id="another"/>
</g>
<g>
<path fill-rule="evenodd" clip-rule="evenodd" d="M283.814 291.624L227.441 333.109L224.5 328.372L280.873 286.887L283.814 291.624Z" fill="white"/>
<animate attributeName="opacity" values="0; 0; 0; 0; 0; 0; 0; 0; 0; 0; 0; 0; 0; 0; 0; 0; 0; 1; 1; 1" dur="2.3s" repeatCount="indefinite" id="another"/>
</g>
<g>
<path fill-rule="evenodd" clip-rule="evenodd" d="M294.992 306.232L238.618 347.717L235.677 342.98L292.051 301.495L294.992 306.232Z" fill="white"/>
<animate attributeName="opacity" values="0; 0; 0; 0; 0; 0; 0; 0; 0; 0; 0; 0; 0; 0; 0; 0; 0; 0; 1; 1" dur="2.3s" repeatCount="indefinite" id="another"/>
</g>
<g>
<path fill-rule="evenodd" clip-rule="evenodd" d="M303 321.086L246.12 363L243.202 358.291L300.081 316.377L303 321.086Z" fill="white"/>
<animate attributeName="opacity" values="0; 0; 0; 0; 0; 0; 0; 0; 0; 0; 0; 0; 0; 0; 0; 0; 0; 0; 0; 1" dur="2.3s" repeatCount="indefinite" id="another"/>
</g>
<g>
<path d="M303.454 343.464L271.794 365.891L268.008 360.588L299.669 338.161L299.809 338.067L303.454 343.464V343.464ZM299.669 338.161L299.735 338.114L299.809 338.067L299.669 338.161ZM301.198 318.817L306.719 315.339L306.707 315.32L307.439 316.517L308.094 317.713L308.671 318.904L309.172 320.089L309.6 321.266L309.956 322.433L310.244 323.586L310.465 324.726L310.62 325.85L310.715 326.953L310.751 328.037L310.732 329.098L310.66 330.133L310.539 331.141L310.372 332.123L310.162 333.075L309.913 333.994L309.628 334.882L309.31 335.736L308.962 336.558L308.586 337.344L308.188 338.095L307.767 338.81L307.329 339.487L306.872 340.13L306.401 340.733L305.918 341.299L305.423 341.827L304.915 342.318L304.396 342.77L303.865 343.183L303.314 343.558L299.809 338.067L300.002 337.935L300.231 337.757L300.484 337.535L300.757 337.273L301.04 336.971L301.331 336.63L301.624 336.254L301.915 335.845L302.202 335.401L302.481 334.928L302.747 334.427L303 333.897L303.236 333.341L303.452 332.76L303.646 332.156L303.816 331.528L303.959 330.881L304.073 330.213L304.156 329.523L304.205 328.814L304.219 328.087L304.194 327.341L304.129 326.575L304.019 325.791L303.864 324.988L303.66 324.166L303.403 323.325L303.09 322.465L302.718 321.585L302.284 320.688L301.782 319.772L301.21 318.836L301.198 318.817V318.817ZM301.21 318.836L301.198 318.817L301.195 318.813L301.21 318.836ZM260.569 242.655L306.719 315.339L301.198 318.817L255.048 246.133L256.013 241.675L260.569 242.655ZM256.013 241.675L258.791 239.855L260.569 242.655L256.013 241.675ZM210.763 271.33L256.013 241.675L259.603 247.112L214.353 276.767L209.807 275.804L210.763 271.33V271.33ZM209.807 275.804L208.067 273.097L210.763 271.33L209.807 275.804ZM267.15 364.994L209.807 275.804L215.309 272.294L272.652 361.485L271.794 365.891L267.15 364.994V364.994ZM271.794 365.891L268.999 367.871L267.15 364.994L271.794 365.891Z" fill="white"/>
</g>
<g>
<path fill-rule="evenodd" clip-rule="evenodd" d="M304.64 180.678C302.497 108.545 216 69.9747 149.887 51.7877C120.121 43.6007 112.274 54.563 89.8452 70.3415L80.5034 76.9133C144.324 90.2868 238.885 127.142 258.801 195.179C261.53 213.761 257.341 233.387 247.425 249.466C243.872 255.225 234.197 262.49 228.561 266.778C265.087 240.904 300.352 230.29 304.64 180.678V180.678Z" fill="#3B9ED4"/>
</g>
<g>
<path fill-rule="evenodd" clip-rule="evenodd" d="M146 52.3888L78.5204 101L75 95.6112L142.48 47L146 52.3888Z" fill="white"/>
<animate attributeName="opacity" values="0; 1; 1; 1; 1; 1; 1; 1; 1; 1; 1; 1; 1; 1; 1; 1; 1; 1; 1; 1" dur="2.3s" repeatCount="indefinite" id="another"/>
</g>
<g>
<path fill-rule="evenodd" clip-rule="evenodd" d="M162.219 57.628L100.094 103.522L96.853 98.4344L158.978 52.5403L162.219 57.628Z" fill="white"/>
<animate attributeName="opacity" values="0; 0; 1; 1; 1; 1; 1; 1; 1; 1; 1; 1; 1; 1; 1; 1; 1; 1; 1; 1" dur="2.3s" repeatCount="indefinite" id="another"/>
</g>
<g>
<path fill-rule="evenodd" clip-rule="evenodd" d="M180 62.8898L120.124 107L117 102.11L176.876 58L180 62.8898Z" fill="white"/>
<animate attributeName="opacity" values="0; 0; 0; 1; 1; 1; 1; 1; 1; 1; 1; 1; 1; 1; 1; 1; 1; 1; 1; 1" dur="2.3s" repeatCount="indefinite" id="another"/>
</g>
<g>
<path fill-rule="evenodd" clip-rule="evenodd" d="M201 69.6902L142.074 112L139 107.31L197.926 65L201 69.6902Z" fill="white"/>
<animate attributeName="opacity" values="0; 0; 0; 0; 1; 1; 1; 1; 1; 1; 1; 1; 1; 1; 1; 1; 1; 1; 1; 1" dur="2.3s" repeatCount="indefinite" id="another"/>
</g>
<g>
<path fill-rule="evenodd" clip-rule="evenodd" d="M221 78.9935L162.053 124.04L158.977 119.046L217.925 74L221 78.9935Z" fill="white"/>
<animate attributeName="opacity" values="0; 0; 0; 0; 0; 1; 1; 1; 1; 1; 1; 1; 1; 1; 1; 1; 1; 1; 1; 1" dur="2.3s" repeatCount="indefinite" id="another"/>
</g>
<g>
<path fill-rule="evenodd" clip-rule="evenodd" d="M242 89.79L183.074 133L180 128.21L238.926 85L242 89.79Z" fill="white"/>
<animate attributeName="opacity" values="0; 0; 0; 0; 0; 0; 1; 1; 1; 1; 1; 1; 1; 1; 1; 1; 1; 1; 1; 1" dur="2.3s" repeatCount="indefinite" id="another"/>
</g>
<g>
<path fill-rule="evenodd" clip-rule="evenodd" d="M262 103.69L204.025 146L201 141.31L258.975 99L262 103.69Z" fill="white"/>
<animate attributeName="opacity" values="0; 0; 0; 0; 0; 0; 0; 1; 1; 1; 1; 1; 1; 1; 1; 1; 1; 1; 1" dur="2.3s" repeatCount="indefinite" id="another"/>
</g>
<g>
<path fill-rule="evenodd" clip-rule="evenodd" d="M279 119.043L218.374 164.534L215.211 159.491L275.837 114L279 119.043Z" fill="white"/>
<animate attributeName="opacity" values="0; 0; 0; 0; 0; 0; 0; 0; 1; 1; 1; 1; 1; 1; 1; 1; 1; 1; 1; 1" dur="2.3s" repeatCount="indefinite" id="another"/>
</g>
<g>
<path fill-rule="evenodd" clip-rule="evenodd" d="M291.288 136.997L229.163 182.892L225.922 177.804L288.047 131.909L291.288 136.997Z" fill="white"/>
<animate attributeName="opacity" values="0; 0; 0; 0; 0; 0; 0; 0; 0; 1; 1; 1; 1; 1; 1; 1; 1; 1; 1; 1" dur="2.3s" repeatCount="indefinite" id="another"/>
</g>
<g>
<path fill-rule="evenodd" clip-rule="evenodd" d="M298.25 152.115L236.125 198.01L232.884 192.922L295.009 147.028L298.25 152.115Z" fill="white"/>
<animate attributeName="opacity" values="0; 0; 0; 0; 0; 0; 0; 0; 0; 0; 1; 1; 1; 1; 1; 1; 1; 1; 1; 1" dur="2.3s" repeatCount="indefinite" id="another"/>
</g>
<g>
<path fill-rule="evenodd" clip-rule="evenodd" d="M302 166.693L239.875 212.588L236.634 207.5L298.759 161.605L302 166.693Z" fill="white"/>
<animate attributeName="opacity" values="0; 0; 0; 0; 0; 0; 0; 0; 0; 0; 0; 1; 1; 1; 1; 1; 1; 1; 1; 1" dur="2.3s" repeatCount="indefinite" id="another"/>
</g>
<g>
<path fill-rule="evenodd" clip-rule="evenodd" d="M305.366 181.421L240.39 230.326L237 224.905L301.977 176L305.366 181.421Z" fill="white"/>
<animate attributeName="opacity" values="0; 0; 0; 0; 0; 0; 0; 0; 0; 0; 0; 0; 1; 1; 1; 1; 1; 1; 1; 1" dur="2.3s" repeatCount="indefinite" id="another"/>
</g>
<g>
<path fill-rule="evenodd" clip-rule="evenodd" d="M304 201.389L238.421 250L235 244.611L300.579 196L304 201.389Z" fill="white"/>
<animate attributeName="opacity" values="0; 0; 0; 0; 0; 0; 0; 0; 0; 0; 0; 0; 0; 1; 1; 1; 1; 1; 1; 1" dur="2.3s" repeatCount="indefinite" id="another"/>
</g>
<g>
<path d="M149.85 54.7995L149.924 48.7758L156.213 50.5508L162.604 52.4483L169.077 54.4713L175.616 56.6225L182.198 58.904L188.808 61.3193L195.425 63.8706L202.031 66.5605L208.606 69.3922L215.132 72.3676L221.591 75.4915L227.963 78.7654L234.23 82.1926L240.373 85.7775L246.373 89.523L252.212 93.432L257.872 97.5099L263.332 101.76L268.574 106.187L273.579 110.795L278.327 115.589L282.798 120.573L286.97 125.753L290.82 131.13L294.328 136.709L297.468 142.489L300.218 148.471L302.553 154.651L304.451 161.026L305.889 167.591L306.849 174.34L307.312 181.269L301.968 180.087L301.541 173.687L300.661 167.496L299.347 161.503L297.62 155.701L295.495 150.076L292.988 144.623L290.113 139.333L286.885 134.2L283.319 129.222L279.431 124.394L275.236 119.717L270.752 115.19L265.997 110.813L260.989 106.585L255.747 102.505L250.292 98.5743L244.642 94.7913L238.816 91.1553L232.835 87.6651L226.718 84.3193L220.484 81.1172L214.154 78.0558L207.748 75.1346L201.284 72.3509L194.783 69.7037L188.262 67.1899L181.743 64.8079L175.246 62.5556L168.787 60.4305L162.39 58.4314L156.07 56.5548L149.85 54.7995V54.7995ZM91.5789 73.0913L88.1115 67.5916H88.1121L90.1591 66.1365L92.1303 64.711L94.0318 63.3168L95.8725 61.9555L97.6582 60.6306L99.3955 59.3437L101.093 58.0969L102.757 56.8929L104.395 55.7353L106.013 54.625L107.62 53.5658L109.221 52.5603L110.825 51.6116L112.437 50.7227L114.066 49.8975L115.717 49.1389L117.397 48.4517L119.111 47.8385L120.867 47.3029L122.67 46.8496L124.524 46.4808L126.436 46.2L128.411 46.0103L130.454 45.9139H132.57L134.765 46.0124L137.044 46.2104L139.414 46.511L141.88 46.9163L144.45 47.4274L147.129 48.0464L149.924 48.7758L149.85 54.7995L147.19 54.1056L144.658 53.52L142.246 53.0401L139.948 52.6629L137.757 52.3852L135.665 52.2029L133.666 52.1138H131.75L129.912 52.1998L128.142 52.3707L126.433 52.6213L124.775 52.9505L123.163 53.3569L121.587 53.8373L120.039 54.3911L118.513 55.0158L117.001 55.7108L115.495 56.4735L113.991 57.3029L112.481 58.1965L110.957 59.153L109.415 60.1705L107.847 61.2453L106.249 62.3759L104.613 63.5591L102.932 64.7933L101.202 66.075L99.4147 67.4009L97.5657 68.7685L95.6475 70.1752L93.6535 71.6173L91.5784 73.0913H91.5789V73.0913ZM78.7697 74.1635L88.1115 67.5916L91.5789 73.0913L82.237 79.6631L80.6213 79.9627L78.7697 74.1635ZM261.435 195.348L256.166 195.009L256.284 195.544L254.292 189.53L251.899 183.689L249.121 178.012L245.973 172.493L242.47 167.131L238.627 161.922L234.461 156.866L229.988 151.962L225.227 147.211L220.196 142.615L214.914 138.172L209.399 133.883L203.672 129.75L197.752 125.771L191.658 121.947L185.411 118.279L179.029 114.764L172.534 111.404L165.944 108.196L159.279 105.14L152.559 102.236L145.804 99.4818L139.033 96.8774L132.266 94.4209L125.523 92.1118L118.822 89.9486L112.184 87.9298L105.629 86.0542L99.1751 84.3213L92.8428 82.7297L86.6512 81.2766L80.6213 79.9627L80.3854 73.8639L86.4953 75.1956L92.7658 76.6663L99.1782 78.2788L105.714 80.0335L112.353 81.9331L119.078 83.978L125.868 86.1704L132.706 88.5117L139.572 91.0047L146.446 93.6488L153.311 96.4476L160.146 99.4016L166.934 102.514L173.655 105.785L180.291 109.219L186.822 112.816L193.23 116.579L199.496 120.51L205.6 124.613L211.525 128.889L217.25 133.342L222.758 137.975L228.028 142.79L233.041 147.793L237.776 152.985L242.213 158.37L246.33 163.952L250.105 169.73L253.515 175.707L256.536 181.882L259.145 188.253L261.317 194.813L261.435 195.348V195.348ZM249.716 251.617L245.133 247.314L246.02 245.839L246.875 244.346L247.695 242.834L248.483 241.305L249.236 239.758L249.957 238.197L250.642 236.621L251.294 235.031L251.911 233.429L252.493 231.813L253.04 230.187L253.552 228.551L254.029 226.905L254.471 225.25L254.877 223.588L255.247 221.919L255.582 220.244L255.879 218.564L256.141 216.88L256.366 215.193L256.554 213.503L256.706 211.812L256.821 210.12L256.898 208.429L256.939 206.738L256.942 205.049L256.907 203.365L256.834 201.682L256.724 200.006L256.576 198.333L256.391 196.668L256.166 195.009L261.435 195.348L261.682 197.179L261.886 199.015L262.05 200.852L262.17 202.691L262.249 204.532L262.287 206.372L262.284 208.212L262.24 210.05L262.156 211.885L262.032 213.718L261.868 215.547L261.665 217.371L261.422 219.189L261.141 221.001L260.821 222.806L260.462 224.603L260.066 226.391L259.632 228.169L259.16 229.937L258.65 231.694L258.104 233.439L257.521 235.171L256.902 236.89L256.245 238.595L255.553 240.284L254.825 241.957L254.061 243.614L253.262 245.253L252.428 246.874L251.558 248.475L250.654 250.056L249.716 251.617V251.617ZM226.822 264.031L230.299 269.524L226.77 264.07L227.31 263.659L227.871 263.232L228.451 262.791L229.049 262.335L229.662 261.864L230.289 261.382L230.926 260.888L231.574 260.383L232.231 259.866L232.893 259.341L233.559 258.807L234.229 258.266L234.898 257.717L235.567 257.162L236.232 256.603L236.892 256.04L237.545 255.472L238.189 254.903L238.822 254.332L239.441 253.761L240.046 253.191L240.634 252.621L241.205 252.054L241.753 251.492L242.277 250.936L242.778 250.385L243.251 249.842L243.695 249.309L244.107 248.788L244.486 248.279L244.828 247.788L245.133 247.314L249.716 251.617L249.319 252.232L248.893 252.844L248.438 253.455L247.955 254.065L247.449 254.674L246.917 255.284L246.364 255.893L245.79 256.502L245.196 257.11L244.586 257.717L243.96 258.323L243.32 258.927L242.668 259.527L242.005 260.125L241.334 260.719L240.656 261.308L239.973 261.891L239.286 262.469L238.598 263.04L237.91 263.603L237.225 264.158L236.543 264.704L235.866 265.24L235.199 265.764L234.541 266.279L233.892 266.781L233.258 267.269L232.639 267.744L232.037 268.204L231.454 268.648L230.891 269.075L230.351 269.486L226.822 264.031V264.031ZM301.968 180.087L307.312 181.269L307.301 181.656L306.794 186.332L306.104 190.79L305.238 195.041L304.199 199.09L302.994 202.947L301.628 206.621L300.109 210.12L298.442 213.452L296.633 216.626L294.69 219.652L292.62 222.539L290.428 225.299L288.122 227.94L285.707 230.473L283.191 232.909L280.578 235.258L277.877 237.53L275.09 239.737L272.225 241.89L269.287 243.997L266.281 246.069L263.214 248.118L260.09 250.153L256.915 252.185L253.694 254.223L250.432 256.279L247.134 258.361L243.807 260.479L240.455 262.646L237.082 264.868L233.696 267.158L230.299 269.524L226.822 264.031L230.265 261.633L233.692 259.316L237.097 257.071L240.474 254.889L243.819 252.759L247.124 250.673L250.384 248.618L253.594 246.587L256.748 244.568L259.841 242.554L262.867 240.533L265.82 238.496L268.696 236.434L271.488 234.337L274.191 232.196L276.8 230.001L279.311 227.744L281.718 225.415L284.016 223.004L286.201 220.502L288.268 217.9L290.212 215.188L292.031 212.356L293.719 209.394L295.272 206.292L296.685 203.038L297.955 199.621L299.077 196.031L300.045 192.255L300.856 188.283L301.502 184.102L301.979 179.7L301.968 180.087V180.087Z" fill="white"/>
</g>
<g>
<path fill-rule="evenodd" clip-rule="evenodd" d="M200.715 220.609L245.078 189.184L242.119 191.245L238.813 193.076L235.177 194.667L231.227 196.003L226.979 197.071L222.451 197.859L217.66 198.352L212.621 198.539L207.352 198.406L201.869 197.939L196.189 197.126L190.329 195.953L184.306 194.409L139.943 225.833L145.967 227.378L151.826 228.551L157.507 229.363L162.989 229.83L168.258 229.964L173.297 229.777L178.089 229.283L182.616 228.495L186.864 227.427L190.814 226.091L194.45 224.501L197.756 222.669L200.715 220.609Z" fill="#3B9ED4"/>
</g>
<g>
<path fill-rule="evenodd" clip-rule="evenodd" d="M199.324 200.622L140.569 242.317L137.504 237.695L196.259 196L199.324 200.622Z" fill="white"/>
<animate attributeName="opacity" values="0; 0; 0; 0; 0; 0; 0; 1; 1; 1; 1; 1; 1; 1; 1; 1; 1; 1; 1; 1" dur="2.3s" repeatCount="indefinite" id="another"/>
</g>
<g>
<path fill-rule="evenodd" clip-rule="evenodd" d="M213 202.584L154.245 244.28L151.18 239.658L209.935 197.962L213 202.584Z" fill="white"/>
<animate attributeName="opacity" values="0; 0; 0; 0; 0; 0; 0; 0; 1; 1; 1; 1; 1; 1; 1; 1; 1; 1; 1; 1" dur="2.3s" repeatCount="indefinite" id="another"/>
</g>
<g>
<path d="M246.816 191.931L202.454 223.355L198.977 217.862L243.339 186.437L243.352 186.429L246.816 191.931V191.931ZM240.393 188.49L243.352 186.429L246.804 191.939L243.845 194L243.68 194.102L240.393 188.49ZM237.251 190.219L240.557 188.387L243.68 194.102L240.375 195.934L240.216 196.013L237.251 190.219ZM233.774 191.73L237.41 190.14L240.216 196.013L236.579 197.603L236.426 197.662L233.774 191.73ZM229.977 193.008L233.927 191.671L236.426 197.662L232.476 198.998L232.327 199.042L229.977 193.008ZM225.878 194.032L230.126 192.964L232.327 199.042L228.079 200.11L227.936 200.141L225.878 194.032V194.032ZM221.494 194.789L226.021 194.001L227.936 200.141L223.408 200.928L223.267 200.948L221.494 194.789ZM216.844 195.263L221.635 194.77L223.267 200.948L218.476 201.441L218.338 201.451L216.844 195.263ZM211.943 195.44L216.981 195.253L218.338 201.451L213.299 201.638L213.163 201.639L211.943 195.44V195.44ZM206.81 195.306L212.079 195.44L213.163 201.639L207.894 201.505L207.759 201.498L206.81 195.306ZM201.462 194.847L206.944 195.314L207.759 201.498L202.276 201.031L202.143 201.016L201.462 194.847V194.847ZM195.916 194.049L201.595 194.862L202.143 201.016L196.463 200.203L196.33 200.18L195.916 194.049ZM190.189 192.899L196.049 194.072L196.33 200.18L190.47 199.008L190.337 198.977L190.189 192.899V192.899ZM184.298 191.385L190.322 192.93L190.337 198.977L184.313 197.432L182.567 191.662L184.298 191.385ZM138.204 223.086L182.567 191.662L186.044 197.155L141.681 228.58L139.95 228.857L138.204 223.086V223.086ZM145.974 230.401L139.95 228.857L139.936 222.81L145.96 224.355L146.107 230.432L145.974 230.401V230.401ZM151.966 231.605L146.107 230.432L145.827 224.324L151.687 225.497L152.1 231.628L151.966 231.605V231.605ZM157.781 232.44L152.1 231.628L151.553 225.474L157.233 226.286L157.914 232.456L157.781 232.44ZM163.397 232.922L157.914 232.456L157.099 226.271L162.582 226.738L163.531 232.93L163.397 232.922ZM168.8 233.063L163.531 232.93L162.447 226.731L167.716 226.864L168.937 233.063L168.8 233.063V233.063ZM173.975 232.875L168.937 233.063L167.58 226.865L172.619 226.678L174.113 232.866L173.975 232.875ZM178.905 232.372L174.113 232.866L172.481 226.688L177.273 226.194L179.046 232.353L178.905 232.372ZM183.574 231.565L179.046 232.353L177.131 226.213L181.659 225.426L183.717 231.534L183.574 231.565V231.565ZM187.964 230.466L183.717 231.534L181.516 225.456L185.763 224.388L188.113 230.423L187.964 230.466V230.466ZM192.064 229.087L188.113 230.423L185.614 224.432L189.565 223.095L192.217 229.027L192.064 229.087V229.087ZM195.853 227.437L192.217 229.027L189.412 223.155L193.047 221.565L196.012 227.359L195.853 227.437ZM199.317 225.527L196.012 227.359L192.888 221.643L196.194 219.811L199.482 225.425L199.317 225.527V225.527ZM202.441 223.364L199.482 225.425L196.03 219.914L198.989 217.853L202.454 223.355L202.441 223.364Z" fill="white"/>
</g>
<g>
<path fill-rule="evenodd" clip-rule="evenodd" d="M139.943 225.833L184.306 194.409V137.773L139.943 169.197V225.833Z" fill="#3B9ED4"/>
</g>
<g>
<path fill-rule="evenodd" clip-rule="evenodd" d="M188 158.058L126.652 203.682L123.452 198.625L184.799 153L188 158.058Z" fill="white"/>
<animate attributeName="opacity" values="0; 0; 0; 0; 0; 1; 1; 1; 1; 1; 1; 1; 1; 1; 1; 1; 1; 1; 1; 1" dur="2.3s" repeatCount="indefinite" id="another"/>
</g>
<g>
<path fill-rule="evenodd" clip-rule="evenodd" d="M187.472 180.064L126.124 225.689L122.923 220.631L184.271 175.007L187.472 180.064Z" fill="white"/>
<animate attributeName="opacity" values="0; 0; 0; 0; 0; 0; 1; 1; 1; 1; 1; 1; 1; 1; 1; 1; 1; 1; 1; 1" dur="2.3s" repeatCount="indefinite" id="another"/>
</g>
<g>
<path d="M186.198 197.06L141.836 228.485L138.05 223.181L182.413 191.757L187.572 194.409L186.198 197.06ZM187.572 137.773V194.409H181.04V137.773L182.413 135.121L187.572 137.773ZM138.05 166.545L182.413 135.121L186.198 140.424L141.836 171.849L136.677 169.197L138.05 166.545ZM136.677 225.833V169.197H143.209V225.833L141.836 228.485L136.677 225.833Z" fill="white"/>
</g>
<g>
<path fill-rule="evenodd" clip-rule="evenodd" d="M139.943 169.197L184.306 137.773L124.979 122.205L80.6166 153.63L139.943 169.197Z" fill="#3B9ED4"/>
</g>
<g>
<path fill-rule="evenodd" clip-rule="evenodd" d="M134.043 133.505L77.9276 174.149L75 169.643L131.116 129L134.043 133.505Z" fill="white"/>
<animate attributeName="opacity" values="0; 1; 1; 1; 1; 1; 1; 1; 1; 1; 1; 1; 1; 1; 1; 1; 1; 1; 1; 1" dur="2.3s" repeatCount="indefinite" id="another"/>
</g>
<g>
<path fill-rule="evenodd" clip-rule="evenodd" d="M148.043 137.505L91.9276 178.149L89 173.643L145.116 133L148.043 137.505Z" fill="white"/>
<animate attributeName="opacity" values="0; 0; 1; 1; 1; 1; 1; 1; 1; 1; 1; 1; 1; 1; 1; 1; 1; 1; 1; 1" dur="2.3s" repeatCount="indefinite" id="another"/>
</g>
<g>
<path fill-rule="evenodd" clip-rule="evenodd" d="M163.198 141.357L107.082 182L104.154 177.494L160.27 136.851L163.198 141.357Z" fill="white"/>
<animate attributeName="opacity" values="0; 0; 0; 1; 1; 1; 1; 1; 1; 1; 1; 1; 1; 1; 1; 1; 1; 1; 1; 1" dur="2.3s" repeatCount="indefinite" id="another"/>
</g>
<g>
<path d="M186.044 140.519L141.681 171.944L138.205 166.45L182.567 135.026L184.313 134.753L186.044 140.519ZM124.986 119.185L184.313 134.753L184.299 140.792L124.972 125.225L123.241 119.458L124.986 119.185V119.185ZM78.8783 150.883L123.241 119.458L126.717 124.952L82.355 156.376L80.6099 156.649L78.8783 150.883V150.883ZM139.936 172.217L80.6099 156.649L80.6234 150.61L139.95 166.177L141.681 171.944L139.936 172.217V172.217Z" fill="white"/>
</g>
<g>
<path fill-rule="evenodd" clip-rule="evenodd" d="M135.754 329.613L139.921 330.706V272.629C147.767 274.381 155.314 275.785 162.543 276.804L205.276 348.081L267.881 365.104L212.432 274.303C232.248 266.723 248.915 255.087 257.373 231.26C289.989 139.365 134.808 87.6334 80.5034 76.9133V126.733C109.603 134.369 140.532 140.198 168.782 155.548C244.991 197.031 205.01 244.348 139.943 225.833V169.197L80.6161 153.63V315.145L135.754 329.613V329.613Z" fill="#3B9ED4"/>
</g>
<g>
<path d="M139.921 333.743L135.754 332.65V326.577L139.921 327.67L142.604 331.411L139.921 333.743ZM139.921 327.67C141.402 328.059 142.604 329.734 142.604 331.41C142.604 333.087 141.402 334.131 139.921 333.743V327.67ZM142.604 273.334V331.411L137.237 330.002V271.925L139.827 269.57L142.604 273.334V273.334ZM137.237 271.925C137.237 270.248 138.439 269.204 139.921 269.593C141.402 269.981 142.604 271.657 142.604 273.334L137.237 271.925V271.925ZM164.634 275.448L160.453 278.16L162.83 279.898L162.145 279.8L161.457 279.701L160.767 279.598L160.077 279.494L159.384 279.387L158.689 279.279L157.994 279.168L157.295 279.055L156.595 278.938L155.894 278.821L155.191 278.701L154.485 278.579L153.777 278.454L153.07 278.328L152.36 278.2L151.647 278.069L150.933 277.936L150.217 277.801L149.499 277.663L148.781 277.524L148.059 277.383L147.336 277.239L146.612 277.094L145.885 276.945L145.157 276.796L144.428 276.643L143.697 276.49L142.963 276.333L142.229 276.176L141.492 276.015L140.753 275.853L140.014 275.688L139.827 269.57L140.558 269.732L141.285 269.892L142.01 270.05L142.735 270.206L143.456 270.36L144.177 270.511L144.895 270.661L145.612 270.809L146.327 270.954L147.04 271.097L147.752 271.239L148.46 271.378L149.169 271.515L149.875 271.651L150.578 271.783L151.28 271.914L151.979 272.042L152.678 272.169L153.375 272.293L154.069 272.416L154.762 272.535L155.453 272.653L156.142 272.769L156.828 272.882L157.513 272.993L158.197 273.102L158.879 273.208L159.558 273.313L160.236 273.416L160.911 273.516L161.585 273.614L162.257 273.71L164.634 275.448V275.448ZM162.257 273.71C163.73 273.917 165.054 275.471 165.212 277.18C165.369 278.889 164.303 280.105 162.83 279.898L162.257 273.71ZM203.186 349.436L160.453 278.16L164.634 275.448L207.366 346.725L205.254 351.111L203.186 349.436ZM207.366 346.725C208.295 348.275 208.113 350.138 206.959 350.887C205.805 351.636 204.115 350.986 203.186 349.436L207.366 346.725ZM267.859 368.134L205.254 351.111L205.298 345.05L267.903 362.073L269.953 363.718L267.859 368.134ZM267.903 362.073C269.385 362.476 270.577 364.16 270.565 365.833C270.553 367.507 269.34 368.537 267.859 368.134L267.903 362.073ZM214.504 272.917L269.953 363.718L265.809 366.489L210.36 275.688L211.103 271.316L214.504 272.917ZM210.36 275.688C209.419 274.146 209.583 272.275 210.727 271.511C211.871 270.746 213.562 271.376 214.504 272.917L210.36 275.688ZM254.854 229.551L259.892 232.968L259.048 235.237L258.157 237.436L257.216 239.565L256.227 241.626L255.193 243.619L254.113 245.547L252.99 247.41L251.824 249.21L250.615 250.948L249.366 252.626L248.077 254.245L246.749 255.807L245.384 257.312L243.983 258.762L242.545 260.16L241.075 261.505L239.571 262.801L238.034 264.048L236.468 265.248L234.872 266.402L233.246 267.513L231.593 268.581L229.913 269.609L228.208 270.597L226.478 271.548L224.724 272.463L222.948 273.344L221.15 274.192L219.332 275.009L217.493 275.796L215.637 276.556L213.761 277.289L211.103 271.316L212.925 270.603L214.726 269.867L216.504 269.105L218.261 268.316L219.994 267.498L221.702 266.652L223.385 265.773L225.041 264.863L226.67 263.919L228.272 262.939L229.845 261.923L231.388 260.868L232.901 259.774L234.382 258.64L235.832 257.463L237.249 256.242L238.632 254.977L239.981 253.665L241.295 252.305L242.574 250.896L243.815 249.435L245.02 247.922L246.187 246.355L247.315 244.733L248.404 243.053L249.452 241.314L250.46 239.515L251.425 237.654L252.348 235.728L253.228 233.738L254.064 231.679L254.854 229.551V229.551ZM83.187 77.6177L77.8197 76.2089L80.3495 73.8415L85.7818 74.9783L91.7467 76.3543L98.1945 77.9715L105.074 79.8288L112.332 81.9263L119.918 84.2656L127.781 86.8446L135.866 89.6647L144.123 92.7266L152.499 96.0303L160.941 99.5757L169.4 103.364L177.821 107.395L186.153 111.672L194.345 116.194L202.345 120.965L210.101 125.986L217.564 131.259L224.681 136.791L231.399 142.586L237.668 148.648L243.433 154.988L248.637 161.61L253.221 168.522L257.119 175.725L260.264 183.211L262.587 190.965L264.023 198.963L264.516 207.179L264.019 215.593L262.491 224.19L259.892 232.968L254.854 229.551L257.288 221.334L258.698 213.408L259.149 205.768L258.706 198.404L257.43 191.293L255.367 184.41L252.56 177.733L249.046 171.243L244.862 164.936L240.05 158.814L234.654 152.882L228.725 147.148L222.313 141.62L215.473 136.303L208.258 131.205L200.722 126.328L192.921 121.675L184.907 117.252L176.736 113.059L168.461 109.097L160.137 105.369L151.817 101.875L143.555 98.617L135.405 95.5947L127.42 92.8089L119.653 90.2613L112.159 87.9512L104.991 85.8797L98.2028 84.0463L91.8476 82.4531L85.9803 81.099L80.6572 79.9851L83.187 77.6177V77.6177ZM80.6572 79.9851C79.1776 79.6933 77.9091 78.0809 77.8244 76.3845C77.7397 74.6881 78.87 73.5498 80.3495 73.8415L80.6572 79.9851V79.9851ZM77.8197 126.029V76.2089L83.187 77.6177V127.438L80.5034 129.77L77.8197 126.029V126.029ZM83.187 127.438C83.187 129.114 81.985 130.158 80.5034 129.77C79.0217 129.381 77.8197 127.705 77.8197 126.029L83.187 127.438V127.438ZM169.431 152.772L168.134 158.324L168.136 158.325L165.531 156.941L162.909 155.609L160.272 154.325L157.619 153.09L154.952 151.9L152.271 150.754L149.578 149.651L146.872 148.586L144.155 147.56L141.428 146.569L138.691 145.612L135.945 144.687L133.193 143.791L130.432 142.925L127.666 142.083L124.894 141.265L122.118 140.47L119.338 139.694L116.555 138.936L113.771 138.194L110.985 137.466L108.199 136.749L105.413 136.042L102.629 135.342L99.8476 134.648L97.0683 133.957L94.2927 133.268L91.5222 132.578L88.7575 131.885L85.999 131.188L83.2473 130.483L80.5034 129.77V123.697L83.2265 124.405L85.9606 125.105L88.7066 125.799L91.463 126.49L94.2282 127.179L97.0018 127.868L99.7832 128.559L102.572 129.254L105.367 129.957L108.167 130.668L110.97 131.389L113.778 132.123L116.589 132.872L119.401 133.638L122.214 134.423L125.029 135.23L127.841 136.06L130.653 136.914L133.464 137.798L136.271 138.71L139.074 139.654L141.873 140.633L144.666 141.648L147.453 142.701L150.233 143.795L153.006 144.932L155.77 146.113L158.524 147.342L161.268 148.619L164.001 149.949L166.721 151.332L169.429 152.771L169.431 152.772V152.772ZM169.429 152.771C170.867 153.552 171.744 155.429 171.387 156.963C171.03 158.497 169.574 159.107 168.136 158.325L169.429 152.771ZM137.259 225.128L142.627 226.537L139.995 222.81L145.886 224.322L151.613 225.467L157.159 226.261L162.507 226.716L167.641 226.846L172.542 226.665L177.194 226.186L181.58 225.423L185.681 224.391L189.48 223.106L192.96 221.584L196.105 219.842L198.896 217.899L201.32 215.774L203.362 213.49L205.014 211.068L206.267 208.532L207.119 205.901L207.573 203.184L207.626 200.381L207.269 197.477L206.483 194.452L205.233 191.29L203.483 187.984L201.197 184.544L198.344 180.984L194.898 177.327L190.839 173.594L186.15 169.808L180.812 165.988L174.812 162.154L168.134 158.324L169.431 152.772L176.366 156.749L182.652 160.766L188.305 164.812L193.345 168.881L197.787 172.968L201.648 177.066L204.94 181.174L207.671 185.284L209.843 189.389L211.454 193.469L212.5 197.492L212.982 201.415L212.913 205.193L212.315 208.785L211.222 212.163L209.669 215.311L207.686 218.222L205.299 220.892L202.534 223.318L199.408 225.495L195.94 227.417L192.148 229.076L188.046 230.463L183.653 231.568L178.983 232.38L174.051 232.888L168.876 233.08L163.472 232.943L157.854 232.465L152.04 231.633L146.047 230.434L139.89 228.855L137.259 225.128V225.128ZM139.89 228.855C138.409 228.433 137.231 226.738 137.26 225.069C137.288 223.401 138.514 222.389 139.995 222.81L139.89 228.855V228.855ZM142.627 169.901V226.537L137.259 225.128V168.493L139.943 166.161L142.627 169.901V169.901ZM137.259 168.493C137.259 166.816 138.461 165.772 139.943 166.161C141.424 166.549 142.627 168.225 142.627 169.901L137.259 168.493V168.493ZM80.6161 150.593L139.943 166.161V172.233L80.6161 156.666L77.9325 152.925L80.6161 150.593V150.593ZM80.6161 156.666C79.1345 156.277 77.9325 154.602 77.9325 152.925C77.9325 151.249 79.1345 150.205 80.6161 150.593V156.666V156.666ZM77.9325 314.44V152.925L83.2998 154.334V315.849L80.6161 318.181L77.9325 314.44V314.44ZM83.2998 315.849C83.2998 317.526 82.0978 318.57 80.6161 318.181C79.1345 317.792 77.9325 316.117 77.9325 314.44L83.2998 315.849V315.849ZM135.754 332.65L80.6161 318.181V312.108L135.754 326.577V332.65ZM135.754 326.577C137.235 326.965 138.437 328.641 138.437 330.318C138.437 331.994 137.235 333.038 135.754 332.65V326.577Z" fill="white"/>
</g>
</svg>
