<?xml version="1.0" encoding="UTF-8"?>
<!DOCTYPE svg PUBLIC "-//W3C//DTD SVG 1.1//EN" "http://www.w3.org/Graphics/SVG/1.1/DTD/svg11.dtd">
<!-- Creator: CorelDRAW 2020 (64-Bit) -->
<svg xmlns="http://www.w3.org/2000/svg" xml:space="preserve" width="466px" height="407px" version="1.1" style="shape-rendering:geometricPrecision; text-rendering:geometricPrecision; image-rendering:optimizeQuality; fill-rule:evenodd; clip-rule:evenodd"
viewBox="0 0 466 406.63"
 xmlns:xlink="http://www.w3.org/1999/xlink"
 xmlns:xodm="http://www.corel.com/coreldraw/odm/2003">
 <defs>
  <style type="text/css">
   <![CDATA[
    .str0 {stroke:#3B9ED4;stroke-width:2;stroke-miterlimit:22.9256}
    .str1 {stroke:#2B2A29;stroke-width:2.36;stroke-miterlimit:22.9256}
    .str8 {stroke:#1F5F8F;stroke-width:0.99;stroke-miterlimit:22.9256}
    .str9 {stroke:#1F5F8F;stroke-width:0.99;stroke-miterlimit:22.9256}
    .str4 {stroke:#CCEFFF;stroke-width:0.43;stroke-miterlimit:22.9256}
    .str7 {stroke:#CCEFFF;stroke-width:0.43;stroke-miterlimit:22.9256}
    .str3 {stroke:#66D1FF;stroke-width:0.86;stroke-linecap:round;stroke-linejoin:round;stroke-miterlimit:22.9256}
    .str2 {stroke:#66D1FF;stroke-width:0.86;stroke-linecap:round;stroke-linejoin:round;stroke-miterlimit:22.9256}
    .str6 {stroke:#66D1FF;stroke-width:0.86;stroke-linecap:round;stroke-linejoin:round;stroke-miterlimit:22.9256}
    .str5 {stroke:#66D1FF;stroke-width:0.86;stroke-linecap:round;stroke-linejoin:round;stroke-miterlimit:22.9256}
    .fil1 {fill:none}
    .fil12 {fill:none;fill-rule:nonzero}
    .fil18 {fill:#164B7A}
    .fil10 {fill:#2B6AA1}
    .fil2 {fill:#FEFEFE}
    .fil13 {fill:#164B7A;fill-rule:nonzero}
    .fil37 {fill:#3B9ED4;fill-rule:nonzero}
    .fil14 {fill:#66D1FF;fill-rule:nonzero}
    .fil74 {fill:url(#id5)}
    .fil89 {fill:url(#id6)}
    .fil20 {fill:url(#id7)}
    .fil40 {fill:url(#id8)}
    .fil58 {fill:url(#id9)}
    .fil110 {fill:url(#id10)}
    .fil23 {fill:url(#id11)}
    .fil24 {fill:url(#id12)}
    .fil25 {fill:url(#id13)}
    .fil86 {fill:url(#id14)}
    .fil59 {fill:url(#id15)}
    .fil69 {fill:url(#id16)}
    .fil19 {fill:url(#id17)}
    .fil47 {fill:url(#id18)}
    .fil95 {fill:url(#id19)}
    .fil32 {fill:url(#id20)}
    .fil51 {fill:url(#id21)}
    .fil98 {fill:url(#id22)}
    .fil73 {fill:url(#id23)}
    .fil17 {fill:url(#id24)}
    .fil44 {fill:url(#id25)}
    .fil96 {fill:url(#id26)}
    .fil76 {fill:url(#id27)}
    .fil65 {fill:url(#id28)}
    .fil22 {fill:url(#id29)}
    .fil7 {fill:url(#id30)}
    .fil91 {fill:url(#id31)}
    .fil100 {fill:url(#id32)}
    .fil72 {fill:url(#id33)}
    .fil6 {fill:url(#id34)}
    .fil88 {fill:url(#id35)}
    .fil62 {fill:url(#id36)}
    .fil111 {fill:url(#id37)}
    .fil101 {fill:url(#id38)}
    .fil16 {fill:url(#id39)}
    .fil41 {fill:url(#id40)}
    .fil84 {fill:url(#id41)}
    .fil71 {fill:url(#id42)}
    .fil99 {fill:url(#id43)}
    .fil87 {fill:url(#id44)}
    .fil105 {fill:url(#id45)}
    .fil29 {fill:url(#id46)}
    .fil82 {fill:url(#id47)}
    .fil81 {fill:url(#id48)}
    .fil103 {fill:url(#id49)}
    .fil112 {fill:url(#id50)}
    .fil54 {fill:url(#id51)}
    .fil4 {fill:url(#id52)}
    .fil35 {fill:url(#id53)}
    .fil31 {fill:url(#id54)}
    .fil50 {fill:url(#id55)}
    .fil83 {fill:url(#id56)}
    .fil77 {fill:url(#id57)}
    .fil94 {fill:url(#id58)}
    .fil106 {fill:url(#id59)}
    .fil8 {fill:url(#id60)}
    .fil85 {fill:url(#id61)}
    .fil3 {fill:url(#id62)}
    .fil46 {fill:url(#id63)}
    .fil55 {fill:url(#id64)}
    .fil68 {fill:url(#id65)}
    .fil27 {fill:url(#id66)}
    .fil49 {fill:url(#id67)}
    .fil61 {fill:url(#id68)}
    .fil36 {fill:url(#id69)}
    .fil21 {fill:url(#id70)}
    .fil26 {fill:url(#id71)}
    .fil30 {fill:url(#id72)}
    .fil28 {fill:url(#id73)}
    .fil102 {fill:url(#id74)}
    .fil113 {fill:url(#id75)}
    .fil57 {fill:url(#id76)}
    .fil39 {fill:url(#id77)}
    .fil64 {fill:url(#id78)}
    .fil9 {fill:url(#id79)}
    .fil43 {fill:url(#id80)}
    .fil92 {fill:url(#id81)}
    .fil93 {fill:url(#id82)}
    .fil70 {fill:url(#id83)}
    .fil90 {fill:url(#id84)}
    .fil97 {fill:url(#id85)}
    .fil75 {fill:url(#id86)}
    .fil0 {fill:url(#id87)}
    .fil60 {fill:url(#id88)}
    .fil104 {fill:url(#id89)}
    .fil56 {fill:url(#id90)}
    .fil5 {fill:url(#id91)}
    .fil67 {fill:url(#id92)}
    .fil45 {fill:url(#id93)}
    .fil42 {fill:url(#id94)}
    .fil63 {fill:url(#id95)}
    .fil38 {fill:url(#id96)}
    .fil80 {fill:url(#id97);fill-rule:nonzero}
    .fil34 {fill:url(#id98);fill-rule:nonzero}
    .fil109 {fill:url(#id99);fill-rule:nonzero}
    .fil53 {fill:url(#id100);fill-rule:nonzero}
    .fil79 {fill:url(#id101);fill-rule:nonzero}
    .fil108 {fill:url(#id102);fill-rule:nonzero}
    .fil15 {fill:url(#id103);fill-rule:nonzero}
    .fil114 {fill:url(#id104);fill-rule:nonzero}
    .fil48 {fill:url(#id105);fill-rule:nonzero}
    .fil52 {fill:url(#id106);fill-rule:nonzero}
    .fil33 {fill:url(#id107);fill-rule:nonzero}
    .fil78 {fill:url(#id108);fill-rule:nonzero}
    .fil11 {fill:url(#id109);fill-rule:nonzero}
    .fil66 {fill:url(#id110);fill-rule:nonzero}
    .fil107 {fill:url(#id111);fill-rule:nonzero}
   ]]>
  </style>
   <clipPath id="id0" style="clip-rule:nonzero">
    <path d="M280.69 162.5c-0.35,-0.51 -0.63,-1.58 0,-2.42l4.47 -6c0.26,-0.3 0.65,-0.34 0.99,0.1l6.24 8.22c1.14,1.51 1.54,2.18 3.44,2.89l13.61 2.61c0.34,0.06 0.48,0.49 0.14,0.95l-4.6 6.22c-0.74,0.99 -2,1 -3.32,0.76l-6.28 -1.23 -0.22 -0.1 -0.01 0.01c0,0 -1.45,-0.18 -4.03,-0.77 -2.46,-0.55 -3.62,-1.88 -4.95,-3.79l-5.48 -7.45zm23.74 16.21l5.78 7.78c5.38,7.25 4.39,6.43 19.15,9.08l11.73 2.16 14.91 2.63c0.34,0.06 0.62,0.54 0.29,1.01l-4.66 6.49c-0.53,0.75 -2.12,1.12 -3.43,0.89l-23.6 -4.3c-16.9,-3.04 -15.75,-3.87 -24.47,-15.84 -2.05,-2.82 -1.88,-2.63 -0.34,-4.66l3.98 -5.29c-0.04,0.03 0.35,-0.36 0.66,0.05z"/>
   </clipPath>
   <clipPath id="id1" style="clip-rule:nonzero">
    <path d="M179.38 317.89c-0.02,0.73 -0.47,1.96 -1.65,2.35l-8.42 2.77c-0.45,0.11 -0.86,-0.12 -0.88,-0.77l-0.47 -12.21c-0.08,-2.24 -0.01,-3.16 -1.38,-5.14l-11.42 -11.78c-0.29,-0.29 -0.13,-0.81 0.51,-1.02l8.69 -2.9c1.39,-0.46 2.62,0.4 3.73,1.52l5.25 5.46 0.15 0.25 0.02 -0.01c0,0 1.28,1.16 3.39,3.49 2.01,2.2 2.24,4.28 2.22,7.04l0.26 10.95zm-12.01 -31.85l-0.32 -11.47c-0.29,-10.69 0.11,-9.22 -12.39,-21.83l-9.92 -10.06 -12.67 -12.68c-0.29,-0.3 -0.22,-0.95 0.41,-1.17l8.93 -3.14c1.03,-0.36 2.82,0.36 3.93,1.48l19.96 20.19c14.32,14.44 12.64,14.46 12.96,32 0.08,4.13 0.04,3.82 -2.83,4.75l-7.45 2.42c0.05,0 -0.59,0.11 -0.61,-0.49z"/>
   </clipPath>
   <clipPath id="id2" style="clip-rule:nonzero">
    <path d="M324.19 218.18c0.47,-0.57 1.57,-1.26 2.75,-0.84l8.34 2.98c0.42,0.18 0.61,0.62 0.23,1.15l-7.14 9.92c-1.3,1.82 -1.93,2.5 -2.07,4.9l1.78 16.31c0.05,0.41 -0.39,0.72 -1.03,0.49l-8.64 -3.05c-1.38,-0.48 -1.82,-1.92 -2.01,-3.49l-0.78 -7.53 0.03 -0.29 -0.01 0c0,0 -0.31,-1.71 -0.55,-4.84 -0.22,-2.97 0.87,-4.75 2.58,-6.92l6.52 -8.79zm-10.08 32.5l-6.8 9.25c-6.34,8.61 -5.75,7.21 -3.63,24.83l1.64 14.04 2.21 17.79c0.05,0.41 -0.4,0.88 -1.04,0.67l-8.97 -3.01c-1.04,-0.35 -2.01,-2.01 -2.2,-3.58l-3.34 -28.2c-2.43,-20.19 -1.1,-19.17 9.43,-33.21 2.47,-3.3 2.31,-3.03 5.15,-2.01l7.37 2.67c-0.05,-0.03 0.53,0.27 0.18,0.76z"/>
   </clipPath>
   <clipPath id="id3" style="clip-rule:nonzero">
    <path d="M287.6 297.53c0.7,0.19 1.78,0.9 1.89,2.16l0.76 8.89c0.01,0.46 -0.3,0.82 -0.94,0.69l-11.87 -2.32c-2.18,-0.43 -3.05,-0.71 -5.27,0.18l-13.95 8.53c-0.35,0.22 -0.81,-0.06 -0.87,-0.73l-0.82 -9.19c-0.13,-1.47 0.98,-2.48 2.31,-3.32l6.46 -3.91 0.27 -0.09 0 -0.01c0,0 1.41,-1 4.13,-2.55 2.58,-1.46 4.64,-1.21 7.29,-0.56l10.61 2.23zm-33.42 4.54l-11.14 -2.3c-10.36,-2.15 -8.86,-2.2 -23.85,7.19l-11.95 7.45 -20.09 13.08c-0.35,0.22 -0.97,0.01 -1.04,-0.67l-0.99 -9.47c-0.11,-1.09 0.98,-2.69 2.32,-3.53l28.98 -18.53c17.18,-10.77 16.81,-9.11 33.79,-5.43 4,0.86 3.69,0.83 3.94,3.86l0.64 7.86c0.01,-0.05 -0.03,0.61 -0.61,0.49z"/>
   </clipPath>
   <clipPath id="id4" style="clip-rule:nonzero">
    <path d="M186.71 160.89c0.29,-0.53 0.48,-1.6 -0.21,-2.38l-4.91 -5.52c-0.27,-0.27 -0.67,-0.28 -0.96,0.18l-5.44 8.61c-0.99,1.58 -1.33,2.27 -3.14,3.13l-13.16 3.72c-0.33,0.09 -0.43,0.52 -0.06,0.94l5.05 5.73c0.81,0.91 2.05,0.81 3.33,0.47l6.06 -1.75 0.21 -0.11 0.01 0.01c0,0 1.41,-0.3 3.91,-1.09 2.36,-0.75 3.4,-2.16 4.54,-4.16l4.77 -7.78zm-21.98 17.94l-5.03 8.14c-4.68,7.58 -3.78,6.69 -18.06,10.55l-11.36 3.11 -14.43 3.84c-0.34,0.09 -0.57,0.59 -0.2,1.02l5.13 5.99c0.58,0.69 2.17,0.92 3.45,0.58l22.83 -6.21c16.37,-4.42 15.16,-5.14 22.73,-17.65 1.78,-2.94 1.62,-2.74 -0.05,-4.61l-4.37 -4.86c0.04,0.02 -0.37,-0.33 -0.64,0.1z"/>
   </clipPath>
  <linearGradient id="id5" gradientUnits="userSpaceOnUse" x1="189.27" y1="323.09" x2="169.99" y2="399.27">
   <stop offset="0" style="stop-opacity:1; stop-color:#164B7A"/>
   <stop offset="1" style="stop-opacity:1; stop-color:#3B9ED4"/>
  </linearGradient>
  <linearGradient id="id6" gradientUnits="userSpaceOnUse" x1="219.04" y1="326.34" x2="197.23" y2="342.57">
   <stop offset="0" style="stop-opacity:1; stop-color:#66D1FF"/>
   <stop offset="0.509804" style="stop-opacity:1; stop-color:#3B9ED4"/>
   <stop offset="1" style="stop-opacity:1; stop-color:#2B6AA1"/>
  </linearGradient>
  <linearGradient id="id7" gradientUnits="userSpaceOnUse" xlink:href="#id5" x1="361.54" y1="230.01" x2="404.25" y2="211.34">
  </linearGradient>
  <linearGradient id="id8" gradientUnits="userSpaceOnUse" xlink:href="#id5" x1="81.48" y1="275.22" x2="-3.67" y2="314.95">
  </linearGradient>
  <linearGradient id="id9" gradientUnits="userSpaceOnUse" xlink:href="#id5" x1="375.23" y1="311.99" x2="466.83" y2="332.94">
  </linearGradient>
  <linearGradient id="id10" gradientUnits="userSpaceOnUse" xlink:href="#id5" x1="124.71" y1="180.19" x2="79.94" y2="115.93">
  </linearGradient>
  <linearGradient id="id11" gradientUnits="userSpaceOnUse" xlink:href="#id5" x1="364.99" y1="217.8" x2="409.95" y2="198.15">
  </linearGradient>
  <linearGradient id="id12" gradientUnits="userSpaceOnUse" xlink:href="#id5" x1="354.31" y1="202.28" x2="395.16" y2="184.43">
  </linearGradient>
  <linearGradient id="id13" gradientUnits="userSpaceOnUse" xlink:href="#id5" x1="331.84" y1="216.27" x2="395.49" y2="188.45">
  </linearGradient>
  <linearGradient id="id14" gradientUnits="userSpaceOnUse" x1="273.63" y1="352.68" x2="265.45" y2="355.01">
   <stop offset="0" style="stop-opacity:1; stop-color:#2B6AA1"/>
   <stop offset="1" style="stop-opacity:1; stop-color:#44A3D7"/>
  </linearGradient>
  <linearGradient id="id15" gradientUnits="userSpaceOnUse" x1="379.93" y1="339.96" x2="438.63" y2="297.76">
   <stop offset="0" style="stop-opacity:1; stop-color:#164B7A"/>
   <stop offset="0.431373" style="stop-opacity:1; stop-color:#3B9ED4"/>
   <stop offset="1" style="stop-opacity:1; stop-color:#66D1FF"/>
  </linearGradient>
  <linearGradient id="id16" gradientUnits="userSpaceOnUse" xlink:href="#id14" x1="309.82" y1="306.32" x2="315.37" y2="291">
  </linearGradient>
  <linearGradient id="id17" gradientUnits="userSpaceOnUse" xlink:href="#id15" x1="363.67" y1="174.96" x2="347.98" y2="128.44">
  </linearGradient>
  <linearGradient id="id18" gradientUnits="userSpaceOnUse" xlink:href="#id14" x1="112.16" y1="323.17" x2="103.89" y2="307.74">
  </linearGradient>
  <linearGradient id="id19" gradientUnits="userSpaceOnUse" xlink:href="#id5" x1="304.37" y1="340.18" x2="402.09" y2="404.14">
  </linearGradient>
  <linearGradient id="id20" gradientUnits="userSpaceOnUse" xlink:href="#id6" x1="164.26" y1="311.31" x2="142.37" y2="292.94">
  </linearGradient>
  <linearGradient id="id21" gradientUnits="userSpaceOnUse" xlink:href="#id6" x1="332.08" y1="232.65" x2="338.07" y2="260.6">
  </linearGradient>
  <linearGradient id="id22" gradientUnits="userSpaceOnUse" xlink:href="#id5" x1="172.65" y1="136.91" x2="150.1" y2="108.35">
  </linearGradient>
  <linearGradient id="id23" gradientUnits="userSpaceOnUse" xlink:href="#id5" x1="169.36" y1="321.9" x2="152.47" y2="388.68">
  </linearGradient>
  <linearGradient id="id24" gradientUnits="userSpaceOnUse" x1="401.66" y1="161.59" x2="332.79" y2="129.63">
   <stop offset="0" style="stop-opacity:1; stop-color:#13416A"/>
   <stop offset="0.439216" style="stop-opacity:1; stop-color:#1A5585"/>
   <stop offset="1" style="stop-opacity:1; stop-color:#3B9ED4"/>
  </linearGradient>
  <linearGradient id="id25" gradientUnits="userSpaceOnUse" xlink:href="#id14" x1="86.61" y1="255.74" x2="91.65" y2="271.23">
  </linearGradient>
  <linearGradient id="id26" gradientUnits="userSpaceOnUse" xlink:href="#id5" x1="183.79" y1="134.26" x2="162.37" y2="107.13">
  </linearGradient>
  <linearGradient id="id27" gradientUnits="userSpaceOnUse" xlink:href="#id6" x1="277.57" y1="309.25" x2="254.48" y2="326.43">
  </linearGradient>
  <linearGradient id="id28" gradientUnits="userSpaceOnUse" xlink:href="#id14" x1="380.48" y1="255.29" x2="377.53" y2="272.56">
  </linearGradient>
  <linearGradient id="id29" gradientUnits="userSpaceOnUse" xlink:href="#id5" x1="342.57" y1="232.11" x2="398.37" y2="207.72">
  </linearGradient>
  <linearGradient id="id30" gradientUnits="userSpaceOnUse" xlink:href="#id6" x1="294.32" y1="159.72" x2="318.37" y2="161.82">
  </linearGradient>
  <linearGradient id="id31" gradientUnits="userSpaceOnUse" xlink:href="#id14" x1="199.95" y1="327.02" x2="214.97" y2="325.8">
  </linearGradient>
  <linearGradient id="id32" gradientUnits="userSpaceOnUse" xlink:href="#id5" x1="190.67" y1="145.27" x2="165.18" y2="112.98">
  </linearGradient>
  <linearGradient id="id33" gradientUnits="userSpaceOnUse" xlink:href="#id5" x1="173.75" y1="351.73" x2="160.14" y2="405.53">
  </linearGradient>
  <linearGradient id="id34" gradientUnits="userSpaceOnUse" xlink:href="#id6" x1="335.84" y1="180.96" x2="360.13" y2="183.07">
  </linearGradient>
  <linearGradient id="id35" gradientUnits="userSpaceOnUse" xlink:href="#id15" x1="248.49" y1="358.62" x2="269.26" y2="370.49">
  </linearGradient>
  <linearGradient id="id36" gradientUnits="userSpaceOnUse" xlink:href="#id14" x1="359.21" y1="324.2" x2="364.76" y2="308.88">
  </linearGradient>
  <linearGradient id="id37" gradientUnits="userSpaceOnUse" xlink:href="#id15" x1="101.63" y1="185.29" x2="115.93" y2="126.75">
  </linearGradient>
  <linearGradient id="id38" gradientUnits="userSpaceOnUse" xlink:href="#id5" x1="178.7" y1="160.76" x2="146.77" y2="120.33">
  </linearGradient>
  <linearGradient id="id39" gradientUnits="userSpaceOnUse" xlink:href="#id14" x1="349.03" y1="191.87" x2="338.23" y2="183.75">
  </linearGradient>
  <linearGradient id="id40" gradientUnits="userSpaceOnUse" xlink:href="#id15" x1="60.59" y1="256.02" x2="40.2" y2="325.39">
  </linearGradient>
  <linearGradient id="id41" gradientUnits="userSpaceOnUse" xlink:href="#id6" x1="263.31" y1="356.12" x2="276.47" y2="360.5">
  </linearGradient>
  <linearGradient id="id42" gradientUnits="userSpaceOnUse" xlink:href="#id5" x1="159.4" y1="339.37" x2="146.47" y2="390.48">
  </linearGradient>
  <linearGradient id="id43" gradientUnits="userSpaceOnUse" xlink:href="#id5" x1="162.95" y1="148.12" x2="142.45" y2="122.16">
  </linearGradient>
  <linearGradient id="id44" gradientUnits="userSpaceOnUse" xlink:href="#id5" x1="255.07" y1="351.81" x2="262.03" y2="385.52">
  </linearGradient>
  <linearGradient id="id45" gradientUnits="userSpaceOnUse" xlink:href="#id6" x1="173.06" y1="159.31" x2="149.59" y2="163.4">
  </linearGradient>
  <linearGradient id="id46" gradientUnits="userSpaceOnUse" xlink:href="#id5" x1="108.77" y1="217.29" x2="-0.37" y2="236.34">
  </linearGradient>
  <linearGradient id="id47" gradientUnits="userSpaceOnUse" xlink:href="#id15" x1="276" y1="323.87" x2="225.34" y2="377.33">
  </linearGradient>
  <linearGradient id="id48" gradientUnits="userSpaceOnUse" xlink:href="#id5" x1="252.73" y1="317.75" x2="249.35" y2="406.26">
  </linearGradient>
  <linearGradient id="id49" gradientUnits="userSpaceOnUse" x1="164.27" y1="133.94" x2="102.4" y2="189.42">
   <stop offset="0" style="stop-opacity:1; stop-color:#A3E3FF"/>
   <stop offset="0.0509804" style="stop-opacity:1; stop-color:#CCEFFF"/>
   <stop offset="0.278431" style="stop-opacity:1; stop-color:#EEF8FF"/>
   <stop offset="0.529412" style="stop-opacity:1; stop-color:#F0F9FF"/>
   <stop offset="0.619608" style="stop-opacity:1; stop-color:#CCEFFF"/>
   <stop offset="0.780392" style="stop-opacity:1; stop-color:#9AD3F1"/>
   <stop offset="0.85098" style="stop-opacity:1; stop-color:#88CCF0"/>
   <stop offset="0.968627" style="stop-opacity:1; stop-color:#49ADE3"/>
   <stop offset="1" style="stop-opacity:1; stop-color:#7ED6FC"/>
  </linearGradient>
  <linearGradient id="id50" gradientUnits="userSpaceOnUse" x1="99.75" y1="128.32" x2="83.98" y2="142.45">
   <stop offset="0" style="stop-opacity:1; stop-color:#8CD9FA"/>
   <stop offset="0.109804" style="stop-opacity:1; stop-color:#CCEFFF"/>
   <stop offset="0.431373" style="stop-opacity:1; stop-color:#FEFEFE"/>
   <stop offset="0.65098" style="stop-opacity:1; stop-color:#CCEFFF"/>
   <stop offset="0.960784" style="stop-opacity:1; stop-color:#3B9ED4"/>
   <stop offset="1" style="stop-opacity:1; stop-color:#66D1FF"/>
  </linearGradient>
  <linearGradient id="id51" gradientUnits="userSpaceOnUse" xlink:href="#id50" x1="456.4" y1="304.46" x2="447.75" y2="328.35">
  </linearGradient>
  <linearGradient id="id52" gradientUnits="userSpaceOnUse" x1="301" y1="133.35" x2="368.27" y2="184">
   <stop offset="0" style="stop-opacity:1; stop-color:#7ABCD9"/>
   <stop offset="0.101961" style="stop-opacity:1; stop-color:#CCEFFF"/>
   <stop offset="0.368627" style="stop-opacity:1; stop-color:#EEF8FF"/>
   <stop offset="0.529412" style="stop-opacity:1; stop-color:#F0F9FF"/>
   <stop offset="0.65098" style="stop-opacity:1; stop-color:#CCEFFF"/>
   <stop offset="0.85098" style="stop-opacity:1; stop-color:#9AD3F1"/>
   <stop offset="0.921569" style="stop-opacity:1; stop-color:#88CCF0"/>
   <stop offset="0.968627" style="stop-opacity:1; stop-color:#49ADE3"/>
   <stop offset="1" style="stop-opacity:1; stop-color:#7ED6FC"/>
  </linearGradient>
  <linearGradient id="id53" gradientUnits="userSpaceOnUse" xlink:href="#id50" x1="22.06" y1="331.02" x2="14.21" y2="306.86">
  </linearGradient>
  <linearGradient id="id54" gradientUnits="userSpaceOnUse" xlink:href="#id49" x1="139.87" y1="332.35" x2="109.06" y2="237.52">
  </linearGradient>
  <linearGradient id="id55" gradientUnits="userSpaceOnUse" xlink:href="#id49" x1="364.25" y1="231.03" x2="330.31" y2="324.78">
  </linearGradient>
  <linearGradient id="id56" gradientUnits="userSpaceOnUse" x1="285.26" y1="357.01" x2="247.78" y2="360.06">
   <stop offset="0" style="stop-opacity:1; stop-color:#A3E3FF"/>
   <stop offset="0.0509804" style="stop-opacity:1; stop-color:#CCEFFF"/>
   <stop offset="0.278431" style="stop-opacity:1; stop-color:#EEF8FF"/>
   <stop offset="0.419608" style="stop-opacity:1; stop-color:#F0F9FF"/>
   <stop offset="0.619608" style="stop-opacity:1; stop-color:#CCEFFF"/>
   <stop offset="0.709804" style="stop-opacity:1; stop-color:#FEFEFE"/>
   <stop offset="0.780392" style="stop-opacity:1; stop-color:#9AD3F1"/>
   <stop offset="0.968627" style="stop-opacity:1; stop-color:#1F6091"/>
   <stop offset="1" style="stop-opacity:1; stop-color:#7ED6FC"/>
  </linearGradient>
  <linearGradient id="id57" gradientUnits="userSpaceOnUse" x1="287.45" y1="328.21" x2="178.88" y2="337.05">
   <stop offset="0" style="stop-opacity:1; stop-color:#A3E3FF"/>
   <stop offset="0.0509804" style="stop-opacity:1; stop-color:#CCEFFF"/>
   <stop offset="0.278431" style="stop-opacity:1; stop-color:#EEF8FF"/>
   <stop offset="0.529412" style="stop-opacity:1; stop-color:#F0F9FF"/>
   <stop offset="0.619608" style="stop-opacity:1; stop-color:#CCEFFF"/>
   <stop offset="0.741176" style="stop-opacity:1; stop-color:#9AD3F1"/>
   <stop offset="0.811765" style="stop-opacity:1; stop-color:#88CCF0"/>
   <stop offset="0.968627" style="stop-opacity:1; stop-color:#49ADE3"/>
   <stop offset="1" style="stop-opacity:1; stop-color:#7ED6FC"/>
  </linearGradient>
  <radialGradient id="id58" gradientUnits="userSpaceOnUse" gradientTransform="matrix(-1.42816 1.40931 -1.40924 -1.42809 1285 412)" cx="322.2" cy="356.62" r="18.87" fx="322.2" fy="356.62">
   <stop offset="0" style="stop-opacity:1; stop-color:#0A2740"/>
   <stop offset="1" style="stop-opacity:1; stop-color:#164B7A"/>
  </radialGradient>
  <radialGradient id="id59" gradientUnits="userSpaceOnUse" gradientTransform="matrix(-1.25447 1.12545 -1.12545 -1.25447 472 176)" xlink:href="#id58" cx="136.51" cy="146.13" r="6.73" fx="136.51" fy="146.13">
  </radialGradient>
  <radialGradient id="id60" gradientUnits="userSpaceOnUse" gradientTransform="matrix(1.28565 0.967971 -0.968051 1.28575 44 -360)" xlink:href="#id58" cx="330.13" cy="143.2" r="7.16" fx="330.13" fy="143.2">
  </radialGradient>
  <radialGradient id="id61" gradientUnits="userSpaceOnUse" gradientTransform="matrix(1.74326 -0.495914 0.495982 1.7435 -376 -134)" xlink:href="#id58" cx="267.05" cy="357.75" r="4.32" fx="267.05" fy="357.75">
  </radialGradient>
  <radialGradient id="id62" gradientUnits="userSpaceOnUse" gradientTransform="matrix(1.05518 1.37292 -1.3729 1.05516 229 -446)" xlink:href="#id58" cx="317.58" cy="179.79" r="39.25" fx="317.58" fy="179.79">
  </radialGradient>
  <radialGradient id="id63" gradientUnits="userSpaceOnUse" gradientTransform="matrix(0.957683 1.78265 -1.78271 0.957718 561 -166)" xlink:href="#id58" cx="100.37" cy="312.35" r="8.63" fx="100.37" fy="312.35">
  </radialGradient>
  <radialGradient id="id64" gradientUnits="userSpaceOnUse" gradientTransform="matrix(-0.438371 1.21314 -1.21299 -0.438316 1045 -99)" xlink:href="#id58" cx="458.71" cy="317.94" r="10.55" fx="458.71" fy="317.94">
  </radialGradient>
  <radialGradient id="id65" gradientUnits="userSpaceOnUse" gradientTransform="matrix(-0.679387 1.88051 -1.88038 -0.679339 1091 -104)" xlink:href="#id58" cx="319.19" cy="295.22" r="8.36" fx="319.19" fy="295.22">
  </radialGradient>
  <radialGradient id="id66" gradientUnits="userSpaceOnUse" gradientTransform="matrix(0.068607 -1.7066 1.7066 0.068607 -268 419)" xlink:href="#id58" cx="123.34" cy="224.32" r="29.51" fx="123.34" fy="224.32">
  </radialGradient>
  <radialGradient id="id67" gradientUnits="userSpaceOnUse" gradientTransform="matrix(-1.00148 1.41053 -1.41051 -1.00146 1010 83)" xlink:href="#id58" cx="317.64" cy="265.52" r="44.87" fx="317.64" fy="265.52">
  </radialGradient>
  <radialGradient id="id68" gradientUnits="userSpaceOnUse" gradientTransform="matrix(-0.68143 1.87981 -1.87987 -0.681454 1208 -166)" xlink:href="#id58" cx="368.58" cy="313.1" r="8.36" fx="368.58" fy="313.1">
  </radialGradient>
  <radialGradient id="id69" gradientUnits="userSpaceOnUse" gradientTransform="matrix(-0.410895 -1.26327 1.26335 -0.41092 -390 469)" xlink:href="#id58" cx="12" cy="321.86" r="9.85" fx="12" fy="321.86">
  </radialGradient>
  <radialGradient id="id70" gradientUnits="userSpaceOnUse" gradientTransform="matrix(0.56252 1.88686 -1.88689 0.562528 568 -549)" xlink:href="#id58" cx="342.17" cy="221.7" r="14.06" fx="342.17" fy="221.7">
  </radialGradient>
  <radialGradient id="id71" gradientUnits="userSpaceOnUse" gradientTransform="matrix(0.0686267 -1.73252 1.7326 0.0686301 -314 384)" xlink:href="#id58" cx="96.28" cy="233.22" r="21.82" fx="96.28" fy="233.22">
  </radialGradient>
  <radialGradient id="id72" gradientUnits="userSpaceOnUse" gradientTransform="matrix(-0.0792481 -1.79762 1.79762 -0.0792481 -330 578)" xlink:href="#id58" cx="155.5" cy="276.69" r="38.24" fx="155.5" fy="276.69">
  </radialGradient>
  <radialGradient id="id73" gradientUnits="userSpaceOnUse" gradientTransform="matrix(0.0694893 -1.73812 1.73828 0.0694955 -298 351)" xlink:href="#id58" cx="85.69" cy="217.52" r="20.59" fx="85.69" fy="217.52">
  </radialGradient>
  <radialGradient id="id74" gradientUnits="userSpaceOnUse" gradientTransform="matrix(-0.935805 1.46109 -1.46109 -0.935805 558 127)" xlink:href="#id58" cx="151.86" cy="180.4" r="38.54" fx="151.86" fy="180.4">
  </radialGradient>
  <radialGradient id="id75" gradientUnits="userSpaceOnUse" gradientTransform="matrix(-1.19063 1.06906 -1.06898 -1.19053 334 192)" xlink:href="#id58" cx="88.67" cy="130.74" r="7.42" fx="88.67" fy="130.74">
  </radialGradient>
  <radialGradient id="id76" gradientUnits="userSpaceOnUse" gradientTransform="matrix(-0.5056 1.40227 -1.40227 -0.5056 1027 -159)" xlink:href="#id58" cx="418.2" cy="283.64" r="4.91" fx="418.2" fy="283.64">
  </radialGradient>
  <radialGradient id="id77" gradientUnits="userSpaceOnUse" gradientTransform="matrix(-0.500809 -1.53874 1.53874 -0.500809 -401 586)" xlink:href="#id58" cx="65.02" cy="323.94" r="4.42" fx="65.02" fy="323.94">
  </radialGradient>
  <radialGradient id="id78" gradientUnits="userSpaceOnUse" gradientTransform="matrix(0.298316 -1.75531 1.75531 0.298316 -207 863)" xlink:href="#id58" cx="383.04" cy="271.04" r="10.13" fx="383.04" fy="271.04">
  </radialGradient>
  <radialGradient id="id79" gradientUnits="userSpaceOnUse" gradientTransform="matrix(1.69442 1.27415 -1.27403 1.69426 -8 -563)" xlink:href="#id58" cx="343.01" cy="181.07" r="6.14" fx="343.01" fy="181.07">
  </radialGradient>
  <radialGradient id="id80" gradientUnits="userSpaceOnUse" gradientTransform="matrix(-0.534483 -1.64179 1.64193 -0.53453 -312 556)" xlink:href="#id58" cx="86.01" cy="270.23" r="10.01" fx="86.01" fy="270.23">
  </radialGradient>
  <radialGradient id="id81" gradientUnits="userSpaceOnUse" gradientTransform="matrix(-1.30284 1.28535 -1.28541 -1.3029 1183 357)" xlink:href="#id58" cx="325.77" cy="336.99" r="22.19" fx="325.77" fy="336.99">
  </radialGradient>
  <radialGradient id="id82" gradientUnits="userSpaceOnUse" gradientTransform="matrix(-1.52989 1.50805 -1.50805 -1.52989 1244 371)" xlink:href="#id58" cx="298.49" cy="324.4" r="26.25" fx="298.49" fy="324.4">
  </radialGradient>
  <radialGradient id="id83" gradientUnits="userSpaceOnUse" gradientTransform="matrix(-1.88713 -0.732601 0.732601 -1.88713 282 1079)" xlink:href="#id58" cx="181.02" cy="327.91" r="16.84" fx="181.02" fy="327.91">
  </radialGradient>
  <radialGradient id="id84" gradientUnits="userSpaceOnUse" gradientTransform="matrix(-1.71309 0.139926 -0.139926 -1.71309 624 870)" xlink:href="#id58" cx="212.97" cy="331.64" r="8.6" fx="212.97" fy="331.64">
  </radialGradient>
  <radialGradient id="id85" gradientUnits="userSpaceOnUse" gradientTransform="matrix(1.80432 -1.09605 1.09612 1.80442 -310 78)" xlink:href="#id58" cx="181.49" cy="149.72" r="10.07" fx="181.49" fy="149.72">
  </radialGradient>
  <radialGradient id="id86" gradientUnits="userSpaceOnUse" gradientTransform="matrix(-1.81021 -0.34604 0.346033 -1.81018 581 958)" xlink:href="#id58" cx="245.15" cy="310.75" r="35.84" fx="245.15" fy="310.75">
  </radialGradient>
  <radialGradient id="id87" gradientUnits="userSpaceOnUse" gradientTransform="matrix(1.4076 -0.136679 0.136679 1.4076 -126 -60)" cx="233.28" cy="224.6" r="212.56" fx="233.28" fy="224.6">
   <stop offset="0" style="stop-opacity:1; stop-color:#CCEFFF"/>
   <stop offset="0.368627" style="stop-opacity:1; stop-color:#66D1FF"/>
   <stop offset="0.588235" style="stop-opacity:1; stop-color:#3B9ED4"/>
   <stop offset="1" style="stop-opacity:1; stop-color:#104A7D"/>
  </radialGradient>
  <radialGradient id="id88" gradientUnits="userSpaceOnUse" gradientTransform="matrix(-0.0762246 1.64229 -1.6423 -0.0762249 915 -269)" cx="370.28" cy="314.69" r="12.35" fx="370.28" fy="314.69">
   <stop offset="0" style="stop-opacity:1; stop-color:#CCEFFF"/>
   <stop offset="0.458824" style="stop-opacity:1; stop-color:#B3D9ED"/>
   <stop offset="0.729412" style="stop-opacity:1; stop-color:#3B9ED4"/>
   <stop offset="1" style="stop-opacity:1; stop-color:#2B6AA1"/>
  </radialGradient>
  <radialGradient id="id89" gradientUnits="userSpaceOnUse" gradientTransform="matrix(-1.34697 1.20789 -1.20787 -1.34694 488 172)" cx="134.55" cy="142.53" r="10.92" fx="134.55" fy="142.53">
   <stop offset="0" style="stop-opacity:1; stop-color:#CCEFFF"/>
   <stop offset="0.509804" style="stop-opacity:1; stop-color:#B3D9ED"/>
   <stop offset="0.8" style="stop-opacity:1; stop-color:#3B9ED4"/>
   <stop offset="1" style="stop-opacity:1; stop-color:#2B6AA1"/>
  </radialGradient>
  <radialGradient id="id90" gradientUnits="userSpaceOnUse" gradientTransform="matrix(-0.505191 1.39569 -1.39569 -0.505191 1021 -171)" xlink:href="#id89" cx="421.56" cy="277.18" r="7.05" fx="421.56" fy="277.18">
  </radialGradient>
  <radialGradient id="id91" gradientUnits="userSpaceOnUse" gradientTransform="matrix(1.4117 1.06223 -1.06229 1.41178 16 -399)" xlink:href="#id89" cx="321.22" cy="139.73" r="11.23" fx="321.22" fy="139.73">
  </radialGradient>
  <radialGradient id="id92" gradientUnits="userSpaceOnUse" gradientTransform="matrix(-0.0757464 1.64229 -1.64229 -0.0757468 833 -208)" xlink:href="#id88" cx="320.88" cy="296.81" r="12.35" fx="320.88" fy="296.81">
  </radialGradient>
  <radialGradient id="id93" gradientUnits="userSpaceOnUse" gradientTransform="matrix(0.294876 1.58378 -1.58378 0.294876 566 65)" xlink:href="#id88" cx="98.58" cy="313.37" r="12.78" fx="98.58" fy="313.37">
  </radialGradient>
  <radialGradient id="id94" gradientUnits="userSpaceOnUse" gradientTransform="matrix(-0.827093 -1.17017 1.1702 -0.827113 -163 592)" xlink:href="#id88" cx="83.86" cy="270.06" r="15.57" fx="83.86" fy="270.06">
  </radialGradient>
  <radialGradient id="id95" gradientUnits="userSpaceOnUse" gradientTransform="matrix(0.685883 -1.32598 1.32601 0.685894 -239 596)" xlink:href="#id88" cx="385.24" cy="271.34" r="15.5" fx="385.24" fy="271.34">
  </radialGradient>
  <radialGradient id="id96" gradientUnits="userSpaceOnUse" gradientTransform="matrix(-0.556727 -1.71335 1.71336 -0.556732 -464 629)" xlink:href="#id89" cx="66.27" cy="331.13" r="6.27" fx="66.27" fy="331.13">
  </radialGradient>
  <linearGradient id="id97" gradientUnits="userSpaceOnUse" x1="289.93" y1="308.74" x2="257.23" y2="311.61">
   <stop offset="0" style="stop-opacity:1; stop-color:#66D1FF"/>
   <stop offset="1" style="stop-opacity:1; stop-color:#317BB2"/>
  </linearGradient>
  <linearGradient id="id98" gradientUnits="userSpaceOnUse" xlink:href="#id97" x1="169.09" y1="322.73" x2="158.85" y2="291.22">
  </linearGradient>
  <linearGradient id="id99" gradientUnits="userSpaceOnUse" xlink:href="#id97" x1="181.31" y1="153.1" x2="160.75" y2="171.53">
  </linearGradient>
  <linearGradient id="id100" gradientUnits="userSpaceOnUse" xlink:href="#id97" x1="335.29" y1="220.68" x2="324.01" y2="251.83">
  </linearGradient>
  <linearGradient id="id101" gradientUnits="userSpaceOnUse" xlink:href="#id97" x1="255.31" y1="308.66" x2="185.71" y2="314.33">
  </linearGradient>
  <linearGradient id="id102" gradientUnits="userSpaceOnUse" xlink:href="#id97" x1="121.49" y1="211.89" x2="162.37" y2="175.25">
  </linearGradient>
  <linearGradient id="id103" gradientUnits="userSpaceOnUse" xlink:href="#id97" x1="285.46" y1="154.16" x2="307.81" y2="171">
  </linearGradient>
  <linearGradient id="id104" gradientUnits="userSpaceOnUse" x1="109.64" y1="138.93" x2="93.19" y2="153.68">
   <stop offset="0" style="stop-opacity:1; stop-color:#3B9ED4"/>
   <stop offset="0.270588" style="stop-opacity:1; stop-color:#2B6AA1"/>
   <stop offset="0.368627" style="stop-opacity:1; stop-color:#3B9ED4"/>
   <stop offset="0.458824" style="stop-opacity:1; stop-color:#CCEFFF"/>
   <stop offset="0.619608" style="stop-opacity:1; stop-color:#66D1FF"/>
   <stop offset="0.8" style="stop-opacity:1; stop-color:#3B9ED4"/>
   <stop offset="1" style="stop-opacity:1; stop-color:#2B6AA1"/>
  </linearGradient>
  <linearGradient id="id105" gradientUnits="userSpaceOnUse" x1="131.81" y1="335.59" x2="100.55" y2="239.35">
   <stop offset="0" style="stop-opacity:1; stop-color:#3B9ED4"/>
   <stop offset="0.0392157" style="stop-opacity:1; stop-color:#2B6AA1"/>
   <stop offset="0.219608" style="stop-opacity:1; stop-color:#3B9ED4"/>
   <stop offset="0.439216" style="stop-opacity:1; stop-color:#2B6AA1"/>
   <stop offset="0.478431" style="stop-opacity:1; stop-color:#3B9ED4"/>
   <stop offset="0.541176" style="stop-opacity:1; stop-color:#CCEFFF"/>
   <stop offset="0.619608" style="stop-opacity:1; stop-color:#66D1FF"/>
   <stop offset="0.709804" style="stop-opacity:1; stop-color:#3B9ED4"/>
   <stop offset="1" style="stop-opacity:1; stop-color:#144570"/>
  </linearGradient>
  <linearGradient id="id106" gradientUnits="userSpaceOnUse" x1="326.29" y1="216.8" x2="291.68" y2="312.38">
   <stop offset="0" style="stop-opacity:1; stop-color:#3B9ED4"/>
   <stop offset="0.141176" style="stop-opacity:1; stop-color:#2B6AA1"/>
   <stop offset="0.168627" style="stop-opacity:1; stop-color:#66D1FF"/>
   <stop offset="0.219608" style="stop-opacity:1; stop-color:#3B9ED4"/>
   <stop offset="0.341176" style="stop-opacity:1; stop-color:#2B6AA1"/>
   <stop offset="0.431373" style="stop-opacity:1; stop-color:#3B9ED4"/>
   <stop offset="0.541176" style="stop-opacity:1; stop-color:#CCEFFF"/>
   <stop offset="0.619608" style="stop-opacity:1; stop-color:#66D1FF"/>
   <stop offset="0.741176" style="stop-opacity:1; stop-color:#3B9ED4"/>
   <stop offset="1" style="stop-opacity:1; stop-color:#2B6AA1"/>
  </linearGradient>
  <linearGradient id="id107" gradientUnits="userSpaceOnUse" xlink:href="#id106" x1="178.57" y1="320.26" x2="147.16" y2="223.58">
  </linearGradient>
  <linearGradient id="id108" gradientUnits="userSpaceOnUse" xlink:href="#id106" x1="289.71" y1="298.87" x2="189.38" y2="307.68">
  </linearGradient>
  <linearGradient id="id109" gradientUnits="userSpaceOnUse" xlink:href="#id106" x1="280.09" y1="160.47" x2="348.68" y2="212.11">
  </linearGradient>
  <linearGradient id="id110" gradientUnits="userSpaceOnUse" xlink:href="#id105" x1="372.6" y1="233.42" x2="338.15" y2="328.57">
  </linearGradient>
  <linearGradient id="id111" gradientUnits="userSpaceOnUse" xlink:href="#id106" x1="187.12" y1="158.84" x2="124.04" y2="215.4">
  </linearGradient>
 </defs>
 <g id="Layer_x0020_1">
  <metadata id="CorelCorpID_0Corel-Layer"/>
  <circle class="fil0" cx="233.28" cy="224.6" r="120.6"/>
  <path class="fil1 str0" d="M232.99 335.54c0.1,-0.01 0.19,-0.02 0.29,-0.02 30.16,-0.01 58.77,-12.1 79.77,-33.74 42.68,-43.98 41.58,-114.24 -2.46,-156.86 -20.8,-20.13 -48.36,-31.26 -77.31,-31.26 -30.16,0.01 -58.76,12.1 -79.76,33.75 -42.68,43.98 -41.58,114.24 2.46,156.86 20.7,20.03 48.2,31.24 77.01,31.27zm48.65 -155.28c2.84,13.28 4.25,26.89 4.48,40.46l0.05 3.45 -52.46 0 0 -44.76 3.36 -0.02c13.67,-0.08 27.35,-0.59 40.97,-1.8l2.97 -0.26 0.63 2.93zm-47.93 -1.69l0 -64.38 3.99 0.72c5.21,0.94 9.92,3.45 14.04,6.72 7.48,5.94 13.18,14.38 17.53,22.8 4.59,8.91 7.99,18.47 10.53,28.15l1.02 3.89 -4.01 0.35c-13.2,1.13 -26.45,1.65 -39.69,1.73l-3.41 0.02zm-46.93 -5.99c2.32,-8.81 5.33,-17.48 9.3,-25.68 6.34,-13.09 17.47,-29.16 32.78,-31.97l4 -0.74 0 64.38 -3.41 -0.03c-13.24,-0.08 -26.49,-0.59 -39.68,-1.72l-4.01 -0.35 1.02 -3.89zm46.08 6.84l0 44.75 -52.48 0 0.06 -3.45c0.22,-13.57 1.64,-27.19 4.51,-40.47l0.63 -2.92 2.98 0.26c13.61,1.19 27.27,1.71 40.94,1.8l3.36 0.03zm-92.04 -9.88c12.96,3.87 26.77,5.87 40.19,7.32l3.73 0.4 -0.77 3.66c-2.76,13.11 -4.16,26.53 -4.38,39.92l-0.06 3.33 -56.53 0 0.12 -3.51c0.61,-17.39 5.27,-34.34 13.77,-49.53l1.33 -2.37 2.6 0.78zm40.17 102.79c-13.43,1.44 -27.24,3.47 -40.2,7.33l-2.61 0.78 -1.32 -2.38c-8.47,-15.2 -13.12,-32.15 -13.73,-49.54l-0.12 -3.5 56.54 0 0.05 3.33c0.22,13.38 1.6,26.81 4.34,39.91l0.77 3.67 -3.72 0.4zm-0.59 -47.31l52.46 0 0 44.75 -3.37 0.02c-13.66,0.08 -27.34,0.6 -40.96,1.8l-2.98 0.27 -0.62 -2.93c-2.86,-13.28 -4.25,-26.9 -4.48,-40.47l-0.05 -3.44zm52.46 45.6l0 64.37 -3.99 -0.71c-5.21,-0.94 -9.93,-3.46 -14.05,-6.73 -7.47,-5.93 -13.18,-14.37 -17.52,-22.79 -4.6,-8.91 -7.99,-18.47 -10.53,-28.16l-1.02 -3.89 4.01 -0.34c13.19,-1.14 26.44,-1.64 39.69,-1.73l3.41 -0.02zm46.93 5.99c-2.32,8.8 -5.33,17.48 -9.3,25.68 -6.34,13.09 -17.47,29.15 -32.78,31.97l-4 0.74 0 -64.38 3.41 0.02c13.24,0.08 26.49,0.59 39.68,1.73l4.01 0.34 -1.02 3.9zm-46.08 -6.84l0 -44.75 52.48 0 -0.06 3.44c-0.23,13.58 -1.65,27.19 -4.51,40.47l-0.63 2.92 -2.98 -0.26c-13.61,-1.2 -27.28,-1.72 -40.94,-1.8l-3.36 -0.02zm53.33 -44.75l56.53 0 -0.13 3.5c-0.61,17.4 -5.28,34.33 -13.76,49.53l-1.33 2.38 -2.6 -0.78c-12.94,-3.87 -26.79,-5.89 -40.19,-7.32l-3.73 -0.4 0.77 -3.67c2.75,-13.1 4.15,-26.53 4.38,-39.91l0.06 -3.33zm42.67 -53.9c8.49,15.2 13.12,32.15 13.73,49.54l0.12 3.51 -56.54 0 -0.05 -3.33c-0.23,-13.39 -1.59,-26.81 -4.35,-39.92l-0.77 -3.66 3.73 -0.4c13.43,-1.44 27.24,-3.46 40.2,-7.33l2.6 -0.78 1.33 2.37zm-19.71 -25.59c5.81,5.62 11,11.86 15.45,18.6l2.57 3.89 -4.5 1.24c-12.68,3.49 -25.92,5.44 -38.98,6.82l-2.92 0.3 -0.72 -2.83c-2.58,-10.15 -6.07,-20.19 -10.88,-29.51 -3.94,-7.64 -8.85,-15.32 -15.34,-21.02l-9.27 -8.13 12.3 2.33c19.89,3.75 37.75,14.24 52.29,28.31zm-155.87 2.47c10.5,-10.83 22.95,-19.33 36.89,-25.1 5.78,-2.4 11.71,-4.53 17.86,-5.68l12.5 -2.33 -9.48 8.14c-7.22,6.21 -12.45,14.97 -16.58,23.5 -4.17,8.61 -7.3,17.74 -9.66,27.01l-0.72 2.85 -2.91 -0.31c-13.05,-1.38 -26.29,-3.33 -38.95,-6.81l-4.5 -1.24 2.57 -3.89c3.82,-5.77 8.16,-11.18 12.98,-16.14zm-11.09 131.93c12.67,-3.5 25.94,-5.44 38.99,-6.82l2.92 -0.31 0.72 2.84c2.57,10.15 6.07,20.19 10.88,29.51 3.94,7.64 8.99,15.15 15.34,21.01l8.36 7.74c-27.19,-4.6 -42.99,-10.21 -63.68,-30.24 -5.81,-5.62 -11,-11.86 -15.45,-18.6l-2.57 -3.89 4.49 -1.24zm169.4 21.25c-10.51,10.83 -22.96,19.34 -36.9,25.11 -5.78,2.39 -11.71,4.48 -17.85,5.67l-11.53 2.22 8.51 -8.03c6.92,-6.54 12.45,-14.97 16.58,-23.49 4.17,-8.62 7.29,-17.76 9.65,-27.02l0.73 -2.84 2.91 0.31c13.04,1.37 26.28,3.33 38.95,6.8l4.5 1.24 -2.57 3.9c-3.81,5.77 -8.16,11.17 -12.98,16.13z"/>
  <polygon class="fil2 str0" points="211.1,147.94 223.7,139.29 223.84,105.73 211.24,114.38 "/>
  <polygon class="fil2 str0" points="296.24,148.43 308.84,139.78 271.96,96.62 259.36,105.27 "/>
  <path class="fil2 str0" d="M268.34 12.27c-25.94,-11.37 -55,-12.1 -82.9,-10.79l-12.6 8.64c28.79,-1.34 59.42,-0.58 85.85,12.23 10.68,5.72 17.68,11.37 24.67,21.33 3.52,5.2 6.39,9.94 7.68,16.15l0.19 1.2c1.25,12.62 -9.18,28.36 -18.7,36.23l-0.78 0.63c15.26,-10.48 26.44,-18.37 31.53,-37.11 1.47,-6.6 0.59,-11.05 -2.19,-17.14 -7.5,-14.96 -17.73,-24.09 -32.75,-31.37z"/>
  <path class="fil2 str0" d="M258.2 71.29l-1.58 0.86c-10.13,5.87 -21.07,6.7 -32.65,6.53l-12.6 8.65c23.35,0.35 27.6,-2.84 46.83,-16.04z"/>
  <polygon class="fil2 str0" points="211.37,87.33 223.97,78.68 224.11,45.95 211.51,54.6 "/>
  <polygon class="fil2 str0" points="211.51,54.6 224.11,45.95 185.32,45.79 172.72,54.44 "/>
  <path class="fil2 str0" d="M211.1 147.94l0.14 -33.56c5.14,-0.16 10.08,-0.47 14.8,-0.96l27.79 34.83 42.41 0.18 -36.88 -43.16c10.42,-4.7 18.65,-11.44 24.29,-20.73 10.26,-16.9 10.86,-25.28 -1.4,-42.44 -18.97,-26.61 -58.64,-34.67 -109.41,-31.98l-0.13 28.79 25.57 0.11c16.45,0.07 58.53,3.04 59.46,24.65 -6.2,17.57 -21.64,24.25 -46.37,23.66l0.14 -32.73 -38.79 -0.16 -0.39 93.33 38.77 0.17z"/>
  <path class="fil3" d="M300.25 170l25.07 32.62c1.59,2.07 4.23,1.99 5.86,-0.17l26.35 -35c1.63,-2.17 1.66,-5.64 0.07,-7.71l-25.07 -32.61c-1.59,-2.07 -4.23,-2 -5.86,0.17l-26.35 35c-1.63,2.17 -1.66,5.63 -0.07,7.7z"/>
  <path class="fil4" d="M285.95 154.5l24.7 -33.83 -0.05 -0.07 0.12 -0.02 0.06 -0.09 0.05 0.08 34.29 -4.42 -5.15 44.42 40.54 7.17 -25.36 33.69 -41.88 -8.42c0,0 -4.48,-5.82 -9.83,-12.93l8.57 -11.38c1.69,-2.17 3.44,-4.57 3.84,-6.72 0.99,-5.29 -1.61,-10.98 -5.58,-12.01 -2.76,-0.72 -6.04,1.48 -8.95,5.91l-7.91 10.58c-4.68,-6.51 -8.15,-11.72 -7.46,-11.96z"/>
  <path class="fil5" d="M319.7 144.7c2.75,3.81 6.96,3.85 9.8,0.09l2.83 -3.77c2.85,-3.78 2.91,-9.48 0.15,-13.3 -2.53,-3.52 -6.85,-3.43 -9.58,0.2l-2.84 3.77c-2.74,3.63 -2.9,9.49 -0.36,13.01z"/>
  <path class="fil6" d="M350.07 190.42l-14.72 -2.7 9.16 -12.3c5.03,-6.76 19.3,-3.86 11.2,7.37 -4.11,5.71 -5.64,7.63 -5.64,7.63z"/>
  <path class="fil7" d="M294.01 165.85l14.9 2.68 4.95 -6.61c0.65,-0.86 1.45,-1.7 2.16,-2.25 -0.03,-1.93 -0.4,-4.45 -1.82,-6.62 -0.46,-0.69 -0.93,-1.29 -1.41,-1.8 -0.77,-0.51 -1.62,-1.03 -2.55,-1.29 -4.91,-1.38 -10.43,7.95 -11.13,8.91l-5.1 6.98z"/>
  <path class="fil8" d="M334.4 132.61c-0.88,0.47 -1.71,1.18 -2.43,2.14l-2.84 3.77c-1.73,2.29 -2.43,5.48 -2.07,8.41 0.88,-0.47 1.71,-1.18 2.44,-2.14l2.83 -3.77c1.73,-2.3 2.43,-5.48 2.07,-8.41z"/>
  <path class="fil9" d="M344.83 182.45l-4.89 -0.9 4.57 -6.13c1.84,-2.48 4.93,-3.66 7.7,-3.61 -0.39,0.93 -0.96,1.93 -1.74,3.01 -4.11,5.7 -5.64,7.63 -5.64,7.63z"/>
  <path class="fil10" d="M309.24 122.54l-2.76 -0.7c0,0 -1.23,-0.82 -0.65,-2.72 0.58,-1.9 2.93,-2.14 2.93,-2.14l34.54 -3.47 -0.42 3.56 -32.21 3.58 -1.43 1.89z"/>
  <path class="fil11" d="M280.69 162.5c-0.35,-0.51 -0.63,-1.58 0,-2.42l4.47 -6c0.26,-0.3 0.65,-0.34 0.99,0.1l6.24 8.22c1.14,1.51 1.54,2.18 3.44,2.89l13.61 2.61c0.34,0.06 0.48,0.49 0.14,0.95l-4.6 6.22c-0.74,0.99 -2,1 -3.32,0.76l-6.28 -1.23 -0.22 -0.1 -0.01 0.01c0,0 -1.45,-0.18 -4.03,-0.77 -2.46,-0.55 -3.62,-1.88 -4.95,-3.79l-5.48 -7.45zm23.74 16.21l5.78 7.78c5.38,7.25 4.39,6.43 19.15,9.08l11.73 2.16 14.91 2.63c0.34,0.06 0.62,0.54 0.29,1.01l-4.66 6.49c-0.53,0.75 -2.12,1.12 -3.43,0.89l-23.6 -4.3c-16.9,-3.04 -15.75,-3.87 -24.47,-15.84 -2.05,-2.82 -1.88,-2.63 -0.34,-4.66l3.98 -5.29c-0.04,0.03 0.35,-0.36 0.66,0.05z"/>
  <g style="clip-path:url(#id0)">
   <g id="_1468194331904">
    <ellipse class="fil1" transform="matrix(0.203005 0.152852 -0.152851 0.203004 315.008 148.438)" rx="25.4" ry="19.54"/>
   </g>
  </g>
  <path class="fil12" d="M280.69 162.5c-0.35,-0.51 -0.63,-1.58 0,-2.42l4.47 -6c0.26,-0.3 0.65,-0.34 0.99,0.1l6.24 8.22c1.14,1.51 1.54,2.18 3.44,2.89l13.61 2.61c0.34,0.06 0.48,0.49 0.14,0.95l-4.6 6.22c-0.74,0.99 -2,1 -3.32,0.76l-6.28 -1.23 -0.22 -0.1 -0.01 0.01c0,0 -1.45,-0.18 -4.03,-0.77 -2.46,-0.55 -3.62,-1.88 -4.95,-3.79l-5.48 -7.45zm23.74 16.21l5.78 7.78c5.38,7.25 4.39,6.43 19.15,9.08l11.73 2.16 14.91 2.63c0.34,0.06 0.62,0.54 0.29,1.01l-4.66 6.49c-0.53,0.75 -2.12,1.12 -3.43,0.89l-23.6 -4.3c-16.9,-3.04 -15.75,-3.87 -24.47,-15.84 -2.05,-2.82 -1.88,-2.63 -0.34,-4.66l3.98 -5.29c-0.04,0.03 0.35,-0.36 0.66,0.05z"/>
  <path class="fil1" d="M344 114.84l-5.61 43.93c0,0 -0.36,1.74 3.04,2.71 3.41,0.98 45.04,8.36 45.33,8.26"/>
  <path class="fil13" d="M309.76 168.04l-13.8 -2.77c-0.09,-0.01 -1.37,-0.15 -2.57,-1.54 -0.51,-0.58 -1.97,-2.48 -3.47,-4.46 -1.48,-1.95 -3.06,-4.08 -3.77,-5.03l0.23 -0.31c0.69,0.92 2.31,3.08 3.84,5.1 1.5,1.98 2.95,3.87 3.46,4.45 1.14,1.32 2.31,1.41 2.31,1.41l0.01 0 0.01 0 13.83 2.77 -0.08 0.38z"/>
  <path class="fil13" d="M355.85 200.64l-37.8 -6.99 0 0c-0.15,-0.02 -2.76,-0.43 -5.68,-3.94 -2.95,-3.55 -8.01,-10.77 -8.02,-10.79l0.21 -0.32c0.02,0.02 5.16,7.32 8.11,10.87 2.9,3.49 5.44,3.8 5.45,3.8l0 0 37.8 6.99 -0.07 0.38z"/>
  <path class="fil14" d="M356.19 200.63c0.16,0.03 0.27,0.19 0.24,0.35 -0.03,0.16 -0.19,0.27 -0.35,0.24l-38.35 -7.06c0,0 -2.72,-0.34 -5.74,-3.97 -2.97,-3.56 -8.26,-11.23 -8.27,-11.25 -0.1,-0.14 -0.06,-0.32 0.07,-0.42 0.14,-0.09 0.33,-0.05 0.42,0.08 0.01,0.02 5.3,7.67 8.23,11.2 2.88,3.46 5.39,3.77 5.39,3.77l0.01 0.01 38.35 7.05z"/>
  <path class="fil15" d="M309.65 168.1c0.1,0.03 0.17,0.13 0.14,0.23 -0.02,0.11 -0.12,0.17 -0.22,0.15l-12.89 -2.66c-0.6,-0.12 -1.15,-0.24 -1.69,-0.43l0 -0.01c-0.54,-0.2 -1.05,-0.48 -1.56,-0.94 -0.88,-0.8 -7.81,-10.2 -7.83,-10.23 -0.07,-0.09 -0.05,-0.21 0.04,-0.27 0.08,-0.06 0.2,-0.04 0.27,0.04 0.01,0.03 6.92,9.4 7.77,10.17 0.47,0.43 0.95,0.69 1.44,0.87l0.01 0.01c0.51,0.18 1.04,0.3 1.63,0.42l12.89 2.65z"/>
  <polygon class="fil16" points="350.06,190.5 344.83,182.47 339.9,181.53 335.31,187.77 "/>
  <path class="fil17" d="M385.42 170.57l-43.87 -8.12c-4.25,-1.15 -4.35,-1.96 -3.71,-5.79l5.46 -43.15 45.31 8.64c3.63,0.77 3.6,1.63 3.55,3.76l-4.71 42.07c-0.25,1.83 -0.56,2.88 -2.03,2.59z"/>
  <path class="fil18" d="M342.59 119.42c-0.25,-1.64 -1.46,-2.22 -3.31,-2.11l-28.54 3.26 -1.37 1.83 -2.71 -0.66c-1.15,-0.28 -0.44,-3.47 1.52,-3.68l31.34 -3.39c3.52,-0.38 3.61,0.18 3.61,0.22l-0.54 4.53z"/>
  <path class="fil19" d="M344.25 115.15l-4.98 43.54c-0.17,0.94 1.54,1.58 2.17,1.76 1.11,0.32 7.41,1.51 14.47,2.79 10.08,1.84 30.49,5.76 30.59,5.73 -0.07,0.41 -0.26,0.68 -0.74,0.62 -0.18,0.06 -19.81,-3.74 -29.99,-5.59 -7.07,-1.29 -13.4,-2.48 -14.54,-2.81 -2.5,-0.66 -2.95,-1.7 -2.73,-2.6l5 -43.57 0.07 -0.01 0.68 0.14z"/>
  <path class="fil20" d="M386.62 234.52c-6.49,1.93 -13.33,-1.77 -15.27,-8.28 -1.94,-6.51 1.76,-13.35 8.25,-15.28 6.49,-1.94 13.33,1.77 15.27,8.27 1.94,6.51 -1.76,13.35 -8.25,15.29z"/>
  <path class="fil21" d="M363.9 223.16l-7.77 2.31c-3.3,1.1 -4.29,0.96 -6.58,-0.82l-2.11 -2.23 17 -5.04c0.98,-0.29 1.56,-1.27 1.28,-2.19 -0.27,-0.91 -1.29,-1.41 -2.27,-1.11l-20.63 6.1 0.63 -3.59c0.97,-2.85 1.73,-3.5 5.1,-4.4l7.75 -2.31 -0.78 -2.63 -7.75 2.31c-3.15,0.94 -5.66,2.01 -6.99,6.46l-0.87 4.87 0.32 0.06 -2.34 0.69c-0.07,0.02 -0.15,0.06 -0.22,0.09l0.97 3.26c0.08,-0.01 0.17,-0.01 0.25,-0.04l5.61 -1.66 3.11 3.28c3.49,2.95 6.17,2.46 9.32,1.53l7.75 -2.31 -0.78 -2.63z"/>
  <path class="fil22" d="M375.34 238c-8.48,2.53 -17.42,-2.32 -19.95,-10.82 -2.53,-8.5 2.29,-17.44 10.78,-19.96 8.48,-2.53 17.41,2.31 19.94,10.81 2.53,8.5 -2.29,17.44 -10.77,19.97z"/>
  <path class="fil23" d="M391.39 222.55c-6.83,2.04 -14.03,-1.86 -16.07,-8.71 -2.04,-6.85 1.85,-14.06 8.68,-16.09 6.84,-2.04 14.04,1.86 16.08,8.71 2.04,6.85 -1.85,14.05 -8.69,16.09z"/>
  <path class="fil24" d="M378.3 206.6c-6.21,1.85 -12.75,-1.7 -14.61,-7.92 -1.85,-6.23 1.68,-12.77 7.89,-14.62 6.21,-1.86 12.76,1.69 14.61,7.91 1.85,6.23 -1.68,12.77 -7.89,14.63z"/>
  <path class="fil25" d="M369.22 222.99c-9.68,2.89 -19.87,-2.64 -22.76,-12.33 -2.89,-9.7 2.62,-19.9 12.29,-22.78 9.68,-2.89 19.87,2.64 22.76,12.34 2.89,9.69 -2.61,19.89 -12.29,22.77z"/>
  <path class="fil26" d="M100.17 226.19l-5.9 7.21c-1.75,2.17 -3.97,4.91 -10.09,4.98l-24.91 1.18 -0.08 1.91 25.97 -1.23c5.86,-0.28 7.92,-2.21 10.58,-5.52 3.89,-4.85 5.37,-6.11 7.08,-8.25l-2.01 0.1 -0.64 -0.38z"/>
  <polygon class="fil27" points="131.91,227.34 132.19,220.29 73.45,223.07 73.17,230.12 "/>
  <path class="fil28" d="M89.29 223.8l-5.16 -6.45c-1.52,-1.94 -3.46,-4.39 -9.38,-3.9l-24.06 1.14 0.05 -1.12 25.26 -2.51c5.66,-0.27 7.89,2.42 10.21,5.39 3.4,4.34 4.15,5.75 5.65,7.65l-1.94 0.1 -0.63 -0.3z"/>
  <path class="fil29" d="M51.11 192.66l-0.1 2.53c-1.38,-0.32 -2.82,-0.47 -4.32,-0.4 -9.4,0.45 -17.33,8.75 -17.72,18.55 -0.2,4.98 1.62,9.36 4.66,12.43 -1.38,2.53 -2.21,5.39 -2.33,8.39 -0.3,7.49 3.96,13.64 10.21,15.83l-0.05 1.32c-0.23,5.61 3.95,9.95 9.33,9.69 1.47,-0.07 2.88,-0.48 4.15,-1.15l-0.27 7.02c0,0 -1.48,10.22 5.92,9.87 5.68,-0.27 6.31,-5.77 6.42,-8.39 0.1,-2.54 -0.02,-2.66 1.53,-2.69 0.74,0.18 1.52,0.26 2.33,0.22 4.81,-0.23 8.86,-4.47 9.06,-9.47 0.04,-0.84 -0.04,-1.64 -0.22,-2.41 5.25,-1.68 9.27,-6.79 9.51,-12.64 0.25,-6.29 -3.95,-11.3 -9.68,-12.01l0.31 -7.78c3.23,-2.44 5.43,-6.32 5.6,-10.61 0.17,-4.3 -1.75,-8.01 -4.82,-10.15l0.38 -9.56c0.34,-8.61 -6.07,-15.27 -14.33,-14.88 -8.26,0.39 -15.23,7.69 -15.57,16.29z"/>
  <path class="fil30" d="M165.5 297.31l-2.14 -48.65c-0.13,-3.09 -2.74,-4.81 -5.8,-3.82l-49.33 16.03c-3.06,0.99 -5.44,4.33 -5.31,7.43l2.15 48.65c0.13,3.09 2.74,4.81 5.8,3.82l49.33 -16.03c3.05,-0.99 5.44,-4.33 5.3,-7.43z"/>
  <path class="fil31" d="M168.83 322.07l-91.47 30.48 0 0.11 -0.12 -0.06 -0.12 0.04 0 -0.11 -36.25 -19.02 35.18 -39.57 -34.44 -34.5 92.02 -29.9 34.88 36.62c0,0 0.4,8.69 0.75,19.22l-16.05 5.21c-3.11,0.96 -6.44,2.09 -8.29,3.9 -4.54,4.46 -5.89,11.74 -2.74,15.44 2.19,2.57 6.86,2.68 12.69,0.35l14.87 -4.88c0.1,9.49 -0.08,16.9 -0.91,16.67z"/>
  <path class="fil32" d="M168.73 305.58l-12.62 -12.72 -9.29 3.04c-1.22,0.4 -2.56,0.67 -3.62,0.72 -1.29,1.89 -2.64,4.58 -2.74,7.65 -0.03,0.98 0.03,1.89 0.14,2.71 0.4,1.01 0.95,1.99 1.68,2.88 3.82,4.66 15.44,-0.52 16.77,-0.97l9.68 -3.31z"/>
  <path class="fil33" d="M179.38 317.89c-0.02,0.73 -0.47,1.96 -1.65,2.35l-8.42 2.77c-0.45,0.11 -0.86,-0.12 -0.88,-0.77l-0.47 -12.21c-0.08,-2.24 -0.01,-3.16 -1.38,-5.14l-11.42 -11.78c-0.29,-0.29 -0.13,-0.81 0.51,-1.02l8.69 -2.9c1.39,-0.46 2.62,0.4 3.73,1.52l5.25 5.46 0.15 0.25 0.02 -0.01c0,0 1.28,1.16 3.39,3.49 2.01,2.2 2.24,4.28 2.22,7.04l0.26 10.95zm-12.01 -31.85l-0.32 -11.47c-0.29,-10.69 0.11,-9.22 -12.39,-21.83l-9.92 -10.06 -12.67 -12.68c-0.29,-0.3 -0.22,-0.95 0.41,-1.17l8.93 -3.14c1.03,-0.36 2.82,0.36 3.93,1.48l19.96 20.19c14.32,14.44 12.64,14.46 12.96,32 0.08,4.13 0.04,3.82 -2.83,4.75l-7.45 2.42c0.05,0 -0.59,0.11 -0.61,-0.49z"/>
  <g style="clip-path:url(#id1)">
   <g id="_1468194340592">
    <ellipse class="fil1 str1" cx="101.56" cy="280.84" rx="24.07" ry="20.94"/>
   </g>
  </g>
  <path class="fil12" d="M179.38 317.89c-0.02,0.73 -0.47,1.96 -1.65,2.35l-8.42 2.77c-0.45,0.11 -0.86,-0.12 -0.88,-0.77l-0.47 -12.21c-0.08,-2.24 -0.01,-3.16 -1.38,-5.14l-11.42 -11.78c-0.29,-0.29 -0.13,-0.81 0.51,-1.02l8.69 -2.9c1.39,-0.46 2.62,0.4 3.73,1.52l5.25 5.46 0.15 0.25 0.02 -0.01c0,0 1.28,1.16 3.39,3.49 2.01,2.2 2.24,4.28 2.22,7.04l0.26 10.95zm-12.01 -31.85l-0.32 -11.47c-0.29,-10.69 0.11,-9.22 -12.39,-21.83l-9.92 -10.06 -12.67 -12.68c-0.29,-0.3 -0.22,-0.95 0.41,-1.17l8.93 -3.14c1.03,-0.36 2.82,0.36 3.93,1.48l19.96 20.19c14.32,14.44 12.64,14.46 12.96,32 0.08,4.13 0.04,3.82 -2.83,4.75l-7.45 2.42c0.05,0 -0.59,0.11 -0.61,-0.49z"/>
  <path class="fil13" d="M154.95 292.76l11.5 12.06c0.08,0.07 1.23,1.08 1.45,3.24 0.09,0.92 0.22,3.75 0.33,6.69 0.11,2.89 0.19,6.03 0.24,7.44l-0.44 0.14c-0.05,-1.36 -0.14,-4.56 -0.26,-7.56 -0.11,-2.94 -0.23,-5.76 -0.32,-6.66 -0.21,-2.05 -1.29,-2.94 -1.3,-2.94l0 -0.01 -0.01 -0.01 -11.52 -12.08 0.33 -0.31z"/>
  <path class="fil13" d="M132.41 229.83l31.9 32.46 0 0c0.13,0.12 2.39,2.3 2.83,7.68 0.45,5.44 0.45,15.89 0.45,15.92l-0.43 0.16c0,-0.03 -0.02,-10.6 -0.47,-16.04 -0.44,-5.36 -2.69,-7.39 -2.7,-7.4l0 0 -31.91 -32.46 0.33 -0.32z"/>
  <path class="fil1 str2" d="M132.33 229.36l32.39 32.9c0,0 2.32,2.1 2.77,7.54 0.45,5.44 0.37,16.49 0.37,16.49"/>
  <path class="fil34" d="M155.1 292.77c-0.08,-0.09 -0.08,-0.23 0.01,-0.32 0.09,-0.08 0.24,-0.08 0.32,0.01l10.69 11.34c0.5,0.53 0.96,1.01 1.34,1.56l0.01 0.01c0.38,0.56 0.69,1.19 0.87,1.98 0.31,1.38 0.64,15.2 0.64,15.24 0,0.12 -0.1,0.23 -0.22,0.23 -0.13,0 -0.23,-0.1 -0.23,-0.22 -0.01,-0.04 -0.33,-13.82 -0.64,-15.15 -0.16,-0.73 -0.44,-1.3 -0.8,-1.82l0 -0.01c-0.37,-0.53 -0.81,-1 -1.3,-1.51l-10.69 -11.34z"/>
  <path class="fil35" d="M29.73 301.84c-0.96,0.3 -23.95,7.75 -24.53,7.94 -2.14,0.73 -1.98,1.1 -1.89,3.62l0.23 4.93c0.22,4.66 0.2,4.9 2.02,7.1l5.18 6.3c2.27,2.76 2.64,2.1 7.19,0.56l14.71 -4.82c5.54,-6.17 7.72,-9.01 6.88,-12.43 -0.75,-3.06 -3.86,-6.59 -9.79,-13.2z"/>
  <path class="fil36" d="M12.35 331.89c0,0 -6.85,-7.32 -7.48,-9.28 -0.64,-1.95 -0.68,-10.01 -0.68,-10.01l8 9.27c1.73,1.92 1.44,2.01 1.48,5.07l0.05 4.15c0.01,1.22 -0.7,1.58 -1.37,0.8z"/>
  <path class="fil37" d="M4.32 311.39c0.02,0.03 8.47,9.86 9.05,10.51 0.31,0.34 0.59,0.78 0.79,1.38 0.2,0.6 0.33,1.35 0.33,2.35l0 0.38c-0.01,0.93 0.22,6.46 -0.72,6.88 0.26,-0.44 0.26,-4.76 0.26,-6.87l0 -0.39c0,-0.94 -0.11,-1.65 -0.3,-2.2 -0.18,-0.54 -0.43,-0.93 -0.7,-1.23 -0.58,-0.65 -9.04,-10.49 -9.06,-10.52 0.01,-0.19 0.12,-0.29 0.35,-0.29z"/>
  <path class="fil38" d="M70.79 326.82l0 -0.01c-0.04,-2.75 -2.31,-4.27 -5.06,-3.38l-2.56 0.83c-2.75,0.89 -4.96,3.88 -4.93,6.63l0 0c0.04,2.76 2.31,4.28 5.06,3.39l2.56 -0.83c2.75,-0.89 4.96,-3.88 4.93,-6.63z"/>
  <path class="fil39" d="M59.01 327.83c0.61,0.08 1.29,0.01 2,-0.22l2.79 -0.9c1.69,-0.55 3.18,-1.92 4.04,-3.54 -0.61,-0.07 -1.29,-0.01 -2,0.22l-2.78 0.91c-1.7,0.55 -3.19,1.92 -4.05,3.53z"/>
  <path class="fil10" d="M79.35 351.91l2.21 2.55c0,0 0.63,1.64 -1.22,3.08 -1.85,1.45 -4.3,0.08 -4.3,0.08l-35.85 -20.11 2.83 -3.16 33.66 18.42 2.67 -0.86z"/>
  <path class="fil1" d="M41.71 335.34l35.29 -38.79c0,0 1.53,-1.44 -1.11,-4.7 -2.64,-3.25 -37.99,-38.71 -38.34,-38.8"/>
  <path class="fil40" d="M38.13 253.57l37.02 37.68c3.34,4.01 2.88,4.86 -0.34,8.14l-34.62 38.13 -38.06 -39.18c-2.99,-3.2 -2.39,-4.02 -0.88,-6.04l33.15 -37.6c1.48,-1.6 2.49,-2.41 3.73,-1.13z"/>
  <path class="fil18" d="M45.26 331.71c-0.88,1.75 -0.11,3.14 1.77,4.29l29.88 16.23 2.58 -0.83 2.17 2.48c0.93,1.05 -1.93,3.66 -3.97,2.53l-32.69 -18c-3.67,-2.02 -3.37,-2.64 -3.35,-2.67l3.61 -4.03z"/>
  <path class="fil41" d="M40.06 335.31l35.23 -38.72c1,-0.99 -0.52,-3.21 -1.13,-3.97 -1.07,-1.31 -7.67,-8.08 -15.09,-15.59 -10.61,-10.73 -22.83,-22.98 -22.97,-23.02 0.44,-0.44 0.9,-0.61 1.42,-0.13 0.27,0.08 11.65,11.52 22.35,22.35 7.45,7.54 14.07,14.33 15.17,15.68 2.46,2.91 2.12,4.54 1.09,5.45l-35.27 38.75 -0.09 -0.06 -0.71 -0.74z"/>
  <path class="fil42" d="M84.58 256.45l12.67 12.86 -17.56 5.81c-9.64,3.19 -21.72,-9.55 -5.96,-15.04 8.01,-2.78 10.85,-3.63 10.85,-3.63z"/>
  <path class="fil43" d="M85.4 267.57l4.21 4.27 -9.92 3.28c-3.54,1.17 -7.4,0.2 -10.1,-1.78 1.03,-0.64 2.28,-1.23 3.8,-1.76 8.01,-2.79 12.01,-4.01 12.01,-4.01z"/>
  <polygon class="fil44" points="84.75,256.43 85.28,267.6 89.66,271.84 97.33,269.28 "/>
  <path class="fil45" d="M110.08 323.88l-0.08 -17.94 -18.65 5.95c-10.26,3.27 -9.8,20.76 7.17,15.63 8.62,-2.61 11.56,-3.64 11.56,-3.64z"/>
  <path class="fil46" d="M101.93 315.28l-0.05 -6.75 -10.53 3.36c-3.77,1.2 -6.09,4.31 -6.68,7.52 1.23,0.57 2.83,0.41 4.46,-0.08 8.62,-2.61 12.8,-4.05 12.8,-4.05z"/>
  <polygon class="fil47" points="110.12,323.75 101.96,315.36 101.81,308.45 109.98,305.87 "/>
  <path class="fil48" d="M97.18 241.4c10.02,10.37 17.85,17.49 27.7,28.22 8.79,9.55 7.7,11.61 7.9,24.62l1.29 39.44c-0.03,0.45 -0.02,0.96 -1.8,1.5l-8.79 2.67c-1.18,0.36 -0.82,-0.35 -0.87,-0.48l-1.33 -42.68c-0.33,-9.65 1.26,-10.31 -4.87,-17.3l-30.73 -31.21c-0.27,-0.27 -0.55,-0.53 -0.8,-0.82 -0.21,-0.26 0.1,-0.57 0.4,-0.68l10.59 -3.56c0.89,-0.29 0.67,-0.38 1.31,0.28z"/>
  <path class="fil13" d="M85.3 244.74l32.22 32.75 0 0c0.13,0.12 2.38,2.3 2.83,7.68 0.45,5.45 1.98,52.45 1.98,52.48l-0.43 0.16c0,-0.03 -1.55,-47.16 -2,-52.6 -0.45,-5.36 -2.69,-7.39 -2.7,-7.4l0 0 -32.23 -32.76 0.33 -0.31z"/>
  <path class="fil1 str3" d="M85.6 244.74l32.33 32.72c0,0 2.31,2.1 2.77,7.54 0.45,5.45 1.89,52.8 1.89,52.8"/>
  <path class="fil13" d="M97.04 240.94l32.48 33.53 0 0c0.13,0.13 2.4,2.36 2.83,7.69 0.44,5.4 1.8,51.91 1.8,51.94l-0.43 0.15c0,-0.03 -1.39,-46.67 -1.83,-52.06 -0.43,-5.31 -2.69,-7.4 -2.7,-7.41l0 0 -32.48 -33.54 0.33 -0.3z"/>
  <path class="fil1 str4" d="M134.44 333.55l-1.86 -52.11c0,0 -0.45,-3.73 -1.37,-5.18 -0.91,-1.44 -2.32,-2.9 -2.63,-3.29 -0.3,-0.39 -30.9,-31.84 -30.9,-31.84"/>
  <path class="fil49" d="M322.5 242.93l-28.2 39.71c-1.79,2.52 -0.78,5.48 2.24,6.58l48.77 17.65c3.02,1.1 6.96,-0.07 8.75,-2.6l28.19 -39.71c1.8,-2.52 0.79,-5.48 -2.23,-6.57l-48.77 -17.66c-3.02,-1.09 -6.96,0.08 -8.75,2.6z"/>
  <path class="fil50" d="M335.08 221.35l90.91 32.14 0.06 -0.08 0.06 0.12 0.12 0.04 -0.06 0.09 16.91 37.28 -52.06 9.6 5.98 48.39 -90.98 -32.94 -5.03 -50.32c0,0 5.03,-7.1 11.22,-15.62l15.86 5.74c3.05,1.15 6.36,2.31 8.94,2.01 6.32,-0.72 11.86,-5.64 11.65,-10.5 -0.15,-3.37 -3.77,-6.32 -9.8,-8.07l-14.73 -5.28c5.75,-7.55 10.44,-13.29 10.95,-12.6z"/>
  <path class="fil51" d="M325.03 234.42l2.15 17.8 9.2 3.3c1.2,0.44 2.43,1.06 3.3,1.66 2.17,-0.7 4.9,-1.99 6.86,-4.36 0.62,-0.75 1.13,-1.5 1.55,-2.22 0.31,-1.04 0.47,-2.14 0.45,-3.29 -0.16,-6.04 -12.5,-9.09 -13.83,-9.55l-9.68 -3.34z"/>
  <path class="fil52" d="M324.19 218.18c0.47,-0.57 1.57,-1.26 2.75,-0.84l8.34 2.98c0.42,0.18 0.61,0.62 0.23,1.15l-7.14 9.92c-1.3,1.82 -1.93,2.5 -2.07,4.9l1.78 16.31c0.05,0.41 -0.39,0.72 -1.03,0.49l-8.64 -3.05c-1.38,-0.48 -1.82,-1.92 -2.01,-3.49l-0.78 -7.53 0.03 -0.29 -0.01 0c0,0 -0.31,-1.71 -0.55,-4.84 -0.22,-2.97 0.87,-4.75 2.58,-6.92l6.52 -8.79zm-10.08 32.5l-6.8 9.25c-6.34,8.61 -5.75,7.21 -3.63,24.83l1.64 14.04 2.21 17.79c0.05,0.41 -0.4,0.88 -1.04,0.67l-8.97 -3.01c-1.04,-0.35 -2.01,-2.01 -2.2,-3.58l-3.34 -28.2c-2.43,-20.19 -1.1,-19.17 9.43,-33.21 2.47,-3.3 2.31,-3.03 5.15,-2.01l7.37 2.67c-0.05,-0.03 0.53,0.27 0.18,0.76z"/>
  <g style="clip-path:url(#id2)">
   <g id="_1468194317936">
    <ellipse class="fil1" cx="313.33" cy="267.26" rx="41.89" ry="14.69"/>
   </g>
  </g>
  <path class="fil12" d="M324.19 218.18c0.47,-0.57 1.57,-1.26 2.75,-0.84l8.34 2.98c0.42,0.18 0.61,0.62 0.23,1.15l-7.14 9.92c-1.3,1.82 -1.93,2.5 -2.07,4.9l1.78 16.31c0.05,0.41 -0.39,0.72 -1.03,0.49l-8.64 -3.05c-1.38,-0.48 -1.82,-1.92 -2.01,-3.49l-0.78 -7.53 0.03 -0.29 -0.01 0c0,0 -0.31,-1.71 -0.55,-4.84 -0.22,-2.97 0.87,-4.75 2.58,-6.92l6.52 -8.79zm-10.08 32.5l-6.8 9.25c-6.34,8.61 -5.75,7.21 -3.63,24.83l1.64 14.04 2.21 17.79c0.05,0.41 -0.4,0.88 -1.04,0.67l-8.97 -3.01c-1.04,-0.35 -2.01,-2.01 -2.2,-3.58l-3.34 -28.2c-2.43,-20.19 -1.1,-19.17 9.43,-33.21 2.47,-3.3 2.31,-3.03 5.15,-2.01l7.37 2.67c-0.05,-0.03 0.53,0.27 0.18,0.76z"/>
  <path class="fil13" d="M328.04 253.01l-1.67 -16.59c-0.02,-0.09 -0.31,-1.59 0.84,-3.44 0.49,-0.78 2.13,-3.09 3.86,-5.48 1.68,-2.34 3.54,-4.87 4.38,-6.01l0.43 0.15c-0.81,1.11 -2.69,3.69 -4.44,6.12 -1.72,2.39 -3.36,4.69 -3.84,5.46 -1.09,1.75 -0.79,3.11 -0.79,3.12l0.01 0 0 0.02 1.67 16.61 -0.45 0.04z"/>
  <path class="fil13" d="M307.16 316.51l-5.23 -45.21 0 0c-0.03,-0.17 -0.47,-3.28 2.48,-7.8 2.99,-4.57 9.41,-12.81 9.43,-12.83l0.44 0.13c-0.02,0.03 -6.5,8.38 -9.49,12.95 -2.94,4.5 -2.41,7.48 -2.41,7.49l0 0.01 5.24 45.21 -0.46 0.05z"/>
  <path class="fil1 str5" d="M306.93 316.93l-5.34 -45.86c0,0 -0.54,-3.07 2.45,-7.65 2.98,-4.57 9.83,-13.24 9.83,-13.24"/>
  <path class="fil53" d="M327.92 252.9c0.01,0.13 -0.08,0.24 -0.21,0.25 -0.12,0.01 -0.23,-0.08 -0.24,-0.2l-1.48 -15.51c-0.06,-0.73 -0.13,-1.39 -0.09,-2.06l0 -0.01c0.04,-0.68 0.19,-1.36 0.53,-2.1 0.6,-1.27 8.83,-12.38 8.86,-12.42 0.07,-0.1 0.21,-0.12 0.31,-0.04 0.1,0.07 0.13,0.21 0.05,0.31 -0.02,0.04 -8.23,11.11 -8.81,12.34 -0.31,0.68 -0.45,1.31 -0.48,1.93l0 0.01c-0.04,0.64 0.02,1.29 0.09,1.99l1.47 15.51z"/>
  <path class="fil54" d="M432.42 322.77c0.94,0.35 23.66,8.6 24.23,8.8 2.14,0.74 2.24,0.35 3.72,-1.7l2.84 -4.03c2.69,-3.81 2.85,-3.98 2.78,-6.84l-0.23 -8.16c-0.09,-3.57 -0.79,-3.27 -5.32,-4.85l-14.57 -5.23c-8.17,1.46 -11.63,2.36 -13.07,5.58 -1.28,2.87 -1,7.57 -0.38,16.43z"/>
  <path class="fil55" d="M464.59 309.73c0,0 0.91,9.99 0.21,11.92 -0.7,1.93 -5.62,8.31 -5.62,8.31l-0.62 -12.23c-0.18,-2.57 0.1,-2.46 1.95,-4.9l2.51 -3.31c0.74,-0.97 1.52,-0.82 1.57,0.21z"/>
  <path class="fil37" d="M458.34 330.84c0,-0.03 -0.63,-12.98 -0.69,-13.85 -0.03,-0.46 0.01,-0.98 0.22,-1.58 0.21,-0.59 0.58,-1.26 1.19,-2.05l0.24 -0.3c0.57,-0.73 3.79,-5.24 4.78,-4.99 -0.46,0.19 -3.12,3.59 -4.42,5.26l-0.24 0.31c-0.58,0.74 -0.93,1.37 -1.12,1.92 -0.19,0.54 -0.23,0.99 -0.2,1.4 0.06,0.87 0.69,13.83 0.69,13.87 -0.12,0.14 -0.27,0.16 -0.45,0.01z"/>
  <path class="fil56" d="M415.36 277.84l0 0c-1.66,2.19 -0.8,4.79 1.91,5.78l2.54 0.91c2.71,0.99 6.29,-0.01 7.96,-2.2l0 0c1.66,-2.2 0.8,-4.8 -1.91,-5.78l-2.54 -0.92c-2.71,-0.98 -6.29,0.01 -7.96,2.21z"/>
  <path class="fil57" d="M425.28 284.27c-0.44,-0.44 -1.01,-0.8 -1.71,-1.06l-2.75 -0.99c-1.68,-0.61 -3.7,-0.45 -5.37,0.3 0.44,0.44 1.01,0.8 1.71,1.06l2.75 0.99c1.68,0.61 3.7,0.45 5.37,-0.3z"/>
  <path class="fil10" d="M424.02 252.78l-0.17 -3.37c0,0 0.5,-1.69 2.85,-1.69 2.35,0 3.44,2.58 3.44,2.58l15.94 37.89 -4.18 0.76 -15.24 -35.22 -2.64 -0.95z"/>
  <path class="fil1" d="M443.54 288.98l-51.67 8.92c0,0 -2.1,0.2 -2.01,4.39 0.08,4.19 6.2,53.88 6.41,54.17"/>
  <path class="fil58" d="M396.14 355.69l-6.06 -52.47c-0.18,-5.21 0.71,-5.6 5.26,-6.21l50.74 -8.83 5.97 54.3c0.39,4.37 -0.59,4.64 -3.02,5.31l-49.25 9.31c-2.16,0.35 -3.45,0.37 -3.64,-1.41z"/>
  <path class="fil18" d="M438.51 289.66c1.78,-0.85 2.02,-2.42 1.24,-4.47l-13.6 -31.17 -2.55 -0.92 -0.19 -3.3c-0.08,-1.4 3.77,-1.7 4.69,0.44l14.73 34.29c1.66,3.85 1.04,4.15 1.01,4.16l-5.33 0.97z"/>
  <path class="fil59" d="M444.83 290.01l-51.59 8.91c-1.4,0.17 -1.56,2.85 -1.54,3.82 0.03,1.7 1.08,11.09 2.33,21.58 1.77,14.99 3.89,32.15 3.98,32.27 -0.61,0.08 -1.08,-0.06 -1.2,-0.76 -0.16,-0.23 -2.11,-16.25 -3.91,-31.38 -1.24,-10.51 -2.3,-19.94 -2.33,-21.69 -0.15,-3.8 1.12,-4.88 2.48,-4.96l51.64 -8.91 0.04 0.1 0.1 1.02z"/>
  <path class="fil60" d="M361.25 324.88l-2.09 -17.92 17.42 6.2c9.57,3.41 11.27,20.88 -4.54,15.52 -8.03,-2.72 -10.79,-3.8 -10.79,-3.8z"/>
  <path class="fil61" d="M367.44 315.61l-0.7 -5.96 9.84 3.51c3.51,1.25 5.96,4.39 6.88,7.61 -1.2,-0.13 -2.56,-0.43 -4.08,-0.95 -8.03,-2.72 -11.94,-4.21 -11.94,-4.21z"/>
  <polygon class="fil62" points="361.11,324.8 367.56,315.66 366.7,309.62 359.08,306.93 "/>
  <path class="fil63" d="M382.55 256.02l-10.95 14.2 18.38 6.76c10.1,3.72 20.48,-10.35 3.94,-16.73 -8.41,-3.24 -11.37,-4.23 -11.37,-4.23z"/>
  <path class="fil64" d="M383.71 267.81l-4.12 5.36 10.39 3.82c3.7,1.36 7.44,0.33 9.88,-1.84 -0.62,-1.2 -1.98,-2.06 -3.57,-2.67 -8.4,-3.24 -12.58,-4.67 -12.58,-4.67z"/>
  <polygon class="fil65" points="382.44,256.09 383.74,267.73 379.6,273.27 371.57,270.29 "/>
  <path class="fil66" d="M342.07 329.02c-1.54,-14.34 -3.34,-24.76 -4.53,-39.28 -1.06,-12.94 1.06,-13.89 8.9,-24.28l23.21 -31.91c0.3,-0.34 0.6,-0.75 2.34,-0.08l8.57 3.29c1.15,0.44 0.44,0.78 0.4,0.91l-25.17 34.5c-5.67,7.82 -7.33,7.36 -6.79,16.64l5.08 43.5c0.04,0.38 0.1,0.76 0.12,1.15 0.01,0.33 -0.43,0.38 -0.73,0.28l-10.54 -3.7c-0.88,-0.31 -0.76,-0.1 -0.86,-1.02z"/>
  <path class="fil13" d="M353.49 333.69l-5.3 -45.64 0 0c-0.03,-0.18 -0.47,-3.28 2.48,-7.8 2.99,-4.57 30.67,-42.6 30.68,-42.62l0.44 0.13c-0.02,0.02 -27.75,38.17 -30.74,42.74 -2.94,4.5 -2.41,7.48 -2.41,7.49l0 0.01 5.31 45.64 -0.46 0.05z"/>
  <path class="fil1 str6" d="M353.26 333.5l-5.41 -45.68c0,0 -0.54,-3.08 2.45,-7.65 2.99,-4.57 30.94,-42.82 30.94,-42.82"/>
  <path class="fil13" d="M341.89 329.47l-5.02 -46.41 0 0c-0.03,-0.18 -0.45,-3.34 2.49,-7.81 2.97,-4.52 30.46,-42.06 30.48,-42.09l0.43 0.16c-0.02,0.02 -27.57,37.68 -30.54,42.2 -2.92,4.45 -2.42,7.49 -2.42,7.5l0 0.01 5.03 46.41 -0.45 0.03z"/>
  <path class="fil1 str7" d="M369.27 233.43l-30.54 42.25c0,0 -1.94,3.23 -2.1,4.93 -0.17,1.7 0.05,3.72 0.05,4.21 0,0.5 4.83,44.11 4.83,44.11"/>
  <path class="fil67" d="M311.86 307l-2.09 -17.92 17.42 6.2c9.57,3.4 11.27,20.88 -4.54,15.52 -8.03,-2.72 -10.79,-3.8 -10.79,-3.8z"/>
  <path class="fil68" d="M318.04 297.73l-0.69 -5.96 9.84 3.51c3.51,1.25 5.96,4.39 6.88,7.6 -1.21,-0.12 -2.56,-0.42 -4.08,-0.94 -8.03,-2.72 -11.95,-4.21 -11.95,-4.21z"/>
  <polygon class="fil69" points="311.72,306.92 318.16,297.78 317.31,291.74 309.69,289.05 "/>
  <path class="fil70" d="M164.05 347.27l3.4 -8.76c1.33,-3.79 2.16,-4.6 5.42,-5.43l2.64 -0.25 -7.31 18.75c-0.58,1.51 0.11,3.19 1.56,3.76 0.67,0.26 1.41,0.24 2.09,-0.06 0.71,-0.32 1.29,-0.94 1.57,-1.69l8.92 -22.84 2.24 2.47c1.91,2.91 1.97,4.07 0.4,7.79l-3.39 8.73 2.96 1.15 3.39 -8.73c1.38,-3.55 2.18,-6.6 -0.95,-10.98l-3.36 -3.73 1.01 -2.61c0.05,-0.12 0.08,-0.24 0.11,-0.37l0.17 -0.68 -5 -1.94 -0.36 0.69c-0.06,0.09 -0.1,0.18 -0.14,0.28l-2.61 6.7 -4.32 0.41c-5.17,1.11 -6.64,3.91 -8.01,7.46l-3.39 8.73 2.96 1.15z"/>
  <path class="fil71" d="M141.34 358.08c2.6,-6.71 10.17,-10.03 16.89,-7.42 6.72,2.61 10.06,10.16 7.46,16.87 -2.61,6.71 -10.17,10.04 -16.89,7.43 -6.73,-2.62 -10.06,-10.17 -7.46,-16.88z"/>
  <path class="fil72" d="M154.73 371.42c2.75,-7.06 10.71,-10.56 17.79,-7.81 7.07,2.75 10.59,10.7 7.85,17.76 -2.75,7.07 -10.71,10.57 -17.78,7.82 -7.08,-2.75 -10.6,-10.7 -7.86,-17.77z"/>
  <path class="fil73" d="M145.76 346.34c3.41,-8.76 13.29,-13.1 22.07,-9.69 8.78,3.4 13.15,13.27 9.74,22.04 -3.4,8.77 -13.28,13.11 -22.06,9.7 -8.79,-3.41 -13.15,-13.28 -9.75,-22.05z"/>
  <path class="fil74" d="M162.35 350.98c3.88,-10 15.15,-14.96 25.17,-11.07 10.02,3.89 14.99,15.15 11.11,25.15 -3.88,10.01 -15.15,14.96 -25.17,11.07 -10.02,-3.89 -15,-15.15 -11.11,-25.15z"/>
  <path class="fil75" d="M267.44 305.53l-47.18 -9.02c-2.99,-0.57 -5.24,1.54 -4.98,4.7l4.15 50.99c0.26,3.16 2.92,6.21 5.92,6.78l47.18 9.02c2.99,0.57 5.24,-1.54 4.98,-4.7l-4.15 -50.99c-0.26,-3.15 -2.92,-6.2 -5.92,-6.78z"/>
  <path class="fil76" d="M272.99 303.54l-15.4 9.41 0.83 9.81c0.1,1.28 0.05,2.67 -0.14,3.72 1.55,1.69 3.88,3.65 6.86,4.46 0.95,0.25 1.85,0.41 2.69,0.49 1.08,-0.16 2.16,-0.47 3.2,-0.97 5.46,-2.67 3.09,-15.25 2.95,-16.66l-0.99 -10.26z"/>
  <path class="fil77" d="M186.75 317.68l2.84 43.25 -0.08 0.05 0.09 0.06 0.01 0.12 0.09 -0.06 28.69 20.69 19.77 -46.23 54.59 11.76 0.09 0.02 -0.01 -0.12 0.09 -0.1 -0.1 -0.02 -4.6 -47.77c0.41,-0.73 -6.87,-1.98 -15.83,-4l1.76 22.08c0.89,6.01 -0.25,10.38 -3.16,11.87 -4.18,2.14 -10.74,-0.76 -13.92,-6.03 -1.3,-2.15 -1.62,-5.53 -1.82,-8.67l-1.87 -23.46c-20.26,-4.1 -17.63,-4.83 -36.22,6.46l-16.84 10.41c-7.95,5.03 -14.06,9.17 -13.57,9.69z"/>
  <path class="fil1" d="M216.62 382.73l19.99 -48.7c0,0 0.67,-1.99 4.31,-1.67 3.63,0.33 45.5,9.08 45.7,9.3"/>
  <path class="fil78" d="M287.6 297.53c0.7,0.19 1.78,0.9 1.89,2.16l0.76 8.89c0.01,0.46 -0.3,0.82 -0.94,0.69l-11.87 -2.32c-2.18,-0.43 -3.05,-0.71 -5.27,0.18l-13.95 8.53c-0.35,0.22 -0.81,-0.06 -0.87,-0.73l-0.82 -9.19c-0.13,-1.47 0.98,-2.48 2.31,-3.32l6.46 -3.91 0.27 -0.09 0 -0.01c0,0 1.41,-1 4.13,-2.55 2.58,-1.46 4.64,-1.21 7.29,-0.56l10.61 2.23zm-33.42 4.54l-11.14 -2.3c-10.36,-2.15 -8.86,-2.2 -23.85,7.19l-11.95 7.45 -20.09 13.08c-0.35,0.22 -0.97,0.01 -1.04,-0.67l-0.99 -9.47c-0.11,-1.09 0.98,-2.69 2.32,-3.53l28.98 -18.53c17.18,-10.77 16.81,-9.11 33.79,-5.43 4,0.86 3.69,0.83 3.94,3.86l0.64 7.86c0.01,-0.05 -0.03,0.61 -0.61,0.49z"/>
  <g style="clip-path:url(#id3)">
   <g id="_1468202307216">
    <ellipse class="fil1" transform="matrix(-0.418983 0.0341151 -0.0341151 -0.418983 231.15 348.164)" rx="37.9" ry="28.91"/>
   </g>
  </g>
  <path class="fil12" d="M287.6 297.53c0.7,0.19 1.78,0.9 1.89,2.16l0.76 8.89c0.01,0.46 -0.3,0.82 -0.94,0.69l-11.87 -2.32c-2.18,-0.43 -3.05,-0.71 -5.27,0.18l-13.95 8.53c-0.35,0.22 -0.81,-0.06 -0.87,-0.73l-0.82 -9.19c-0.13,-1.47 0.98,-2.48 2.31,-3.32l6.46 -3.91 0.27 -0.09 0 -0.01c0,0 1.41,-1 4.13,-2.55 2.58,-1.46 4.64,-1.21 7.29,-0.56l10.61 2.23zm-33.42 4.54l-11.14 -2.3c-10.36,-2.15 -8.86,-2.2 -23.85,7.19l-11.95 7.45 -20.09 13.08c-0.35,0.22 -0.97,0.01 -1.04,-0.67l-0.99 -9.47c-0.11,-1.09 0.98,-2.69 2.32,-3.53l28.98 -18.53c17.18,-10.77 16.81,-9.11 33.79,-5.43 4,0.86 3.69,0.83 3.94,3.86l0.64 7.86c0.01,-0.05 -0.03,0.61 -0.61,0.49z"/>
  <path class="fil13" d="M257.83 315.79l14.24 -8.54c0.08,-0.06 1.32,-0.96 3.45,-0.69 0.91,0.12 3.66,0.64 6.53,1.2 2.8,0.55 5.85,1.18 7.22,1.46l0.04 0.46c-1.33,-0.26 -4.43,-0.9 -7.35,-1.47 -2.86,-0.56 -5.6,-1.08 -6.5,-1.2 -2.02,-0.25 -3.12,0.6 -3.12,0.61l-0.01 0 -0.01 0.01 -14.26 8.55 -0.23 -0.39z"/>
  <path class="fil13" d="M186.82 326.96l43.77 -27.3 0 0c0.14,-0.1 2.76,-1.81 8.04,-1.03 5.35,0.8 15.42,3.18 15.45,3.19l0.06 0.45c-0.03,0 -10.23,-2.39 -15.57,-3.18 -5.27,-0.79 -7.74,0.95 -7.74,0.96l-0.01 0 -43.76 27.3 -0.24 -0.39z"/>
  <path class="fil79" d="M187.05 326.94c-0.1,0.06 -0.23,0.03 -0.29,-0.07 -0.06,-0.1 -0.03,-0.23 0.07,-0.29l43.71 -27.51 0 0c0.17,-0.11 2.78,-1.81 8.04,-1.02 5.35,0.79 15.97,3.38 16,3.39 0.11,0.03 0.18,0.14 0.15,0.25 -0.02,0.11 -0.14,0.18 -0.25,0.15 -0.03,0 -10.61,-2.58 -15.96,-3.38 -5.09,-0.75 -7.57,0.85 -7.74,0.96l-0.02 0.01 -43.71 27.51z"/>
  <path class="fil80" d="M257.88 315.64c-0.11,0.06 -0.25,0.03 -0.31,-0.08 -0.06,-0.11 -0.02,-0.25 0.08,-0.32l13.36 -7.91c0.62,-0.37 1.19,-0.71 1.81,-0.95l0.01 -0.01c0.63,-0.25 1.3,-0.4 2.11,-0.4 1.39,0.01 14.79,2.83 14.83,2.84 0.12,0.02 0.2,0.14 0.18,0.27 -0.03,0.12 -0.15,0.2 -0.27,0.18 -0.04,-0.01 -13.4,-2.83 -14.74,-2.83 -0.75,0 -1.36,0.14 -1.94,0.37l-0.01 0c-0.59,0.24 -1.15,0.57 -1.76,0.93l-13.35 7.91z"/>
  <path class="fil81" d="M295.92 342.08l-54.35 -10.7c-4.5,-0.47 -5.05,0.35 -6.65,4.65l-19.69 47.84 55.96 10.71c3.72,0.62 4.18,-0.29 5.35,-2.57l19.75 -46.38c0.81,-2.04 1.13,-3.27 -0.37,-3.55z"/>
  <path class="fil82" d="M217.12 382.78l19.96 -48.63c0.48,-1.32 2.85,-1.32 3.7,-1.25 1.47,0.13 9.4,1.69 18.26,3.49 12.64,2.57 27.1,5.6 27.18,5.69 0.22,-0.58 0.2,-1.03 -0.38,-1.19 -0.16,-0.17 -13.66,-2.97 -26.42,-5.56 -8.88,-1.81 -16.85,-3.37 -18.36,-3.5 -3.28,-0.37 -4.52,0.78 -4.91,2.07l-19.97 48.68 0.07 0.04 0.87 0.16z"/>
  <path class="fil83" d="M278.58 349.64l-17.58 -3.65c-3.34,-0.55 -4.65,0.25 -6.69,4.3l-4.91 13.27c-0.46,1.01 -0.88,2.95 -0.03,3.94l10.51 12.19c1.36,-0.62 9.51,-5.37 9.67,-5.37 1.05,0.03 1.94,0.07 2.44,-0.65l0.49 -0.74c0.21,-0.33 0.45,-0.69 0.73,-1.06l5.78 -7.52c0.63,-0.83 0.36,-3.73 0.28,-4.91 -0.28,-3.98 -0.69,-9.8 -0.69,-9.8z"/>
  <path class="fil84" d="M273.69 353.79l-8.44 -1.81 0.72 9.45c0.4,5.19 8.67,6.78 8.15,-1.79 -0.27,-4.35 -0.43,-5.85 -0.43,-5.85z"/>
  <path class="fil85" d="M268.42 357.32l-2.81 -0.61 0.36 4.72c0.15,1.9 1.35,3.32 2.79,3.93 0.1,-0.64 0.13,-1.37 0.08,-2.19 -0.26,-4.35 -0.42,-5.85 -0.42,-5.85z"/>
  <polygon class="fil86" points="273.71,353.74 268.42,357.3 265.59,356.72 265.25,351.93 "/>
  <path class="fil18" d="M270.5 375.31l8.72 -11.33 0.14 -1.69c0,0 1.33,-0.89 1.65,-0.76 0.33,0.13 0.87,1.53 0.31,2.78 -0.42,0.94 -7.98,10.4 -8,10.43 -0.88,1.16 -1.88,0.38 -2.82,0.57z"/>
  <path class="fil1 str8" d="M248.42 365.73l5.24 -15.74c0,0 0.79,-1.9 1.98,-3.31 0.63,-0.75 1.52,-1.38 2.16,-1.48 1.85,-0.31 3.14,0.09 4.12,0.17 0.98,0.08 16.9,3.66 16.9,3.66"/>
  <path class="fil87" d="M248.1 366.2l5.93 -7.35c2,-2.58 1.9,-1.45 4.02,1.06l11.28 13.65c2.22,2.56 3.66,1.45 3.36,1.77l-9.11 4.56 -6.12 3.1 -9.36 -16.79z"/>
  <path class="fil1 str9" d="M248.07 365.83c1.02,1.87 9.2,17.27 9.2,17.27"/>
  <path class="fil88" d="M248.39 365.46l6.46 -7.74c0.36,-0.42 0.61,-0.63 1.11,-0.41l0 0c0.29,0.13 0.6,0.47 1.11,1.13 0.92,1.2 12.94,15.94 12.97,15.98l-0.77 0.63c-0.03,-0.04 -12.08,-14.82 -12.99,-16.01 -0.4,-0.52 -0.62,-0.78 -0.72,-0.82l0 0c-0.11,-0.05 0.1,0.08 0.05,0.14l-6.46 7.73 -0.76 -0.63z"/>
  <path class="fil13" d="M273.09 373.38c0,0 -1.22,1.78 -2.04,1.63l0 0c-0.04,-0.01 -0.08,-0.01 -0.11,-0.02l0 0c-0.6,-0.08 -1.17,-0.15 -5.51,-5.57 -1.21,-1.5 -8.81,-11.28 -9.89,-12.05 0.51,0.07 0.85,0.05 1.1,0.19l0 0c0.27,0.15 0.42,0.31 0.56,0.48l0.01 0.01 8.77 10.93c4.17,5.2 4.6,5.25 5.05,5.31l0 0c0.05,0.01 0.1,0.01 0.14,0.02l0 0c0.37,0.07 1.34,-1.33 1.35,-1.34l0.57 0.41z"/>
  <path class="fil14" d="M257.87 383.33c-0.24,0.13 -0.54,0.04 -0.67,-0.2 -0.13,-0.24 -0.04,-0.54 0.21,-0.67l14.12 -7.6c0.24,-0.12 0.54,-0.03 0.67,0.21 0.13,0.24 0.04,0.54 -0.2,0.67l-14.13 7.59z"/>
  <path class="fil10" d="M189.38 358.3l-2.9 -0.36c0,0 -1.58,0.38 -2.14,2.62 -0.56,2.23 1.43,3.43 1.43,3.43l29.47 19.87 1.65 -3.93 -27.3 -19.06 -0.21 -2.57z"/>
  <path class="fil18" d="M217.96 377.32c-1.15,1.64 -2.58,1.78 -4.19,0.92l-24.17 -17.43 -0.2 -2.48 -2.83 -0.38c-1.2,-0.16 -2.3,3.39 -0.72,4.5l26.62 18.69c2.85,1.99 3.38,1.23 3.39,1.2l2.1 -5.02z"/>
  <path class="fil89" d="M200.16 329l14.27 -8.65 1.48 17.03c0.82,9.36 -13.22,17.51 -14.8,2.15 -0.8,-7.8 -0.95,-10.53 -0.95,-10.53z"/>
  <path class="fil90" d="M210.43 331.76l4.74 -2.87 0.74 8.49c0.3,3.43 -1.4,6.7 -3.75,8.71 -0.36,-1.06 -0.62,-2.32 -0.78,-3.79 -0.79,-7.8 -0.95,-10.54 -0.95,-10.54z"/>
  <polygon class="fil91" points="200.11,328.92 210.42,331.74 215.22,328.88 214.43,320.27 "/>
  <path class="fil92" d="M317.41 339.53l9.73 -1.3c2.9,-0.41 6.59,-0.92 11.34,3.43l20.03 17.05 1.44 -1.42 -20.87 -17.76c-4.71,-4.01 -7.69,-4 -12.12,-3.37 -6.49,0.93 -8.54,0.83 -11.4,1.24l1.62 1.37 0.23 0.76z"/>
  <polygon class="fil93" points="293.81,315.78 288.51,321 335.72,361.18 341.02,355.95 "/>
  <path class="fil94" d="M324.05 349.21l-0.68 8.68c-0.22,2.58 -0.49,5.87 4.42,9.75l19.34 16.46 -0.84 0.82 -21.26 -16.26c-4.55,-3.87 -4.32,-7.55 -3.97,-11.5 0.51,-5.79 0.94,-7.42 1.16,-9.97l1.56 1.33 0.27 0.69z"/>
  <path class="fil95" d="M331.01 400.67l1.9 -1.87c0.83,1.23 1.83,2.39 3.04,3.42 7.55,6.42 19.64,5.75 26.99,-1.51 3.75,-3.69 5.5,-8.37 5.37,-12.93 2.88,-0.96 5.59,-2.55 7.84,-4.77 5.62,-5.55 6.77,-13.36 3.55,-19.54l0.98 -0.98c4.22,-4.15 4.13,-10.51 -0.2,-14.19 -1.18,-1 -2.56,-1.7 -4.02,-2.1l5.27 -5.2c0,0 8.5,-6.8 2.55,-11.87 -4.57,-3.89 -9.02,-0.1 -10.99,1.84 -1.9,1.88 -1.9,2.06 -3.11,0.97 -0.44,-0.67 -0.99,-1.3 -1.64,-1.85 -3.86,-3.29 -10.04,-2.95 -13.79,0.75 -0.63,0.63 -1.15,1.3 -1.57,2.02 -5.25,-2.49 -12.03,-1.45 -16.42,2.89 -4.72,4.65 -5.1,11.53 -1.2,16.21l-5.85 5.76c-4.24,-0.45 -8.73,0.96 -11.94,4.13 -3.24,3.19 -4.43,7.43 -3.61,11.28l-7.18 7.09c-6.47,6.38 -6.33,16.13 0.31,21.78 6.63,5.64 17.26,5.05 23.72,-1.33z"/>
  <path class="fil96" d="M182.31 115.42c2.61,4.3 1.24,9.9 -3.07,12.51 -4.3,2.62 -9.91,1.25 -12.52,-3.04 -2.6,-4.3 -1.23,-9.9 3.07,-12.51 4.31,-2.62 9.91,-1.25 12.52,3.04z"/>
  <path class="fil97" d="M178.43 133.86l3.12 5.14c1.41,2.16 1.5,2.9 0.65,4.87l-1.21 1.93 -6.81 -11.24c-0.39,-0.65 -1.2,-0.88 -1.8,-0.51 -0.61,0.37 -0.78,1.19 -0.38,1.84l8.26 13.65 -2.7 0.22c-2.22,-0.15 -2.83,-0.58 -4.11,-2.83l-3.11 -5.12 -1.74 1.05 3.11 5.13c1.27,2.08 2.51,3.68 5.95,3.8l3.66 -0.29 -0.02 -0.25 0.93 1.55c0.04,0.05 0.07,0.1 0.11,0.15l2.16 -1.32c-0.02,-0.05 -0.05,-0.11 -0.08,-0.17l-2.25 -3.71 1.77 -2.84c1.46,-3.06 0.61,-4.9 -0.65,-6.98l-3.12 -5.13 -1.74 1.06z"/>
  <path class="fil98" d="M171.09 117.07c2.75,4.53 1.3,10.43 -3.23,13.18 -4.53,2.75 -10.43,1.31 -13.17,-3.21 -2.75,-4.52 -1.3,-10.42 3.22,-13.17 4.54,-2.75 10.44,-1.32 13.18,3.2z"/>
  <path class="fil99" d="M161.53 130.09c2.5,4.11 1.18,9.47 -2.93,11.97 -4.12,2.5 -9.48,1.2 -11.98,-2.91 -2.49,-4.11 -1.18,-9.47 2.94,-11.97 4.11,-2.5 9.48,-1.2 11.97,2.91z"/>
  <path class="fil100" d="M188.91 122.84c3.1,5.11 1.47,11.78 -3.65,14.89 -5.12,3.11 -11.79,1.49 -14.9,-3.62 -3.1,-5.11 -1.47,-11.77 3.65,-14.88 5.12,-3.11 11.79,-1.5 14.9,3.61z"/>
  <path class="fil101" d="M176.49 132.68c3.89,6.4 1.84,14.75 -4.57,18.65 -6.41,3.9 -14.76,1.86 -18.65,-4.54 -3.89,-6.4 -1.85,-14.75 4.57,-18.64 6.41,-3.9 14.76,-1.87 18.65,4.53z"/>
  <path class="fil102" d="M168.1 169.92l-21.89 34.18c-1.39,2.17 -3.99,2.32 -5.78,0.33l-28.86 -32.19c-1.79,-1.99 -2.11,-5.4 -0.72,-7.57l21.89 -34.18c1.39,-2.17 3.99,-2.32 5.78,-0.33l28.86 32.19c1.79,1.99 2.11,5.4 0.72,7.57z"/>
  <path class="fil103" d="M180.85 153.47l-27.14 -31.18 0.05 -0.08 -0.12 0 -0.07 -0.08 -0.04 0.07 -34.09 -1.44 8.82 43.24 -39.27 10.47 27.78 30.98 40.47 -11.81c0,0 3.92,-6.1 8.57,-13.54l-9.38 -10.47c-1.85,-1.99 -3.77,-4.2 -4.35,-6.28 -1.41,-5.12 0.66,-10.93 4.48,-12.28 2.66,-0.94 6.07,0.94 9.3,5.05l8.67 9.74c4.05,-6.8 7.02,-12.21 6.32,-12.39z"/>
  <path class="fil104" d="M146.84 146.68c-2.38,3.98 -6.52,4.38 -9.62,0.92l-3.11 -3.47c-3.11,-3.47 -3.66,-9.08 -1.27,-13.06 2.2,-3.68 6.45,-3.96 9.44,-0.62l3.11 3.47c3,3.34 3.65,9.08 1.45,12.76z"/>
  <path class="fil105" d="M173.89 165.31l-14.42 3.89 -5.43 -6.08c-0.71,-0.79 -1.57,-1.55 -2.31,-2.03 -0.14,-1.9 0.01,-4.41 1.23,-6.66 0.38,-0.72 0.8,-1.35 1.23,-1.89 0.71,-0.56 1.51,-1.04 2.41,-1.37 4.71,-1.77 10.92,6.82 11.69,7.71l5.6 6.43z"/>
  <path class="fil106" d="M131.37 136.04c0.9,0.38 1.78,1.01 2.57,1.89l3.11 3.47c1.9,2.11 2.85,5.18 2.75,8.09 -0.91,-0.38 -1.79,-1.01 -2.58,-1.89l-3.11 -3.47c-1.89,-2.11 -2.85,-5.19 -2.74,-8.09z"/>
  <path class="fil10" d="M155.26 124.01l2.65 -0.92c0,0 1.15,-0.91 0.42,-2.73 -0.73,-1.82 -3.07,-1.86 -3.07,-1.86l-34.25 -0.49 0.71 3.46 31.97 0.8 1.57 1.74z"/>
  <path class="fil107" d="M186.71 160.89c0.29,-0.53 0.48,-1.6 -0.21,-2.38l-4.91 -5.52c-0.27,-0.27 -0.67,-0.28 -0.96,0.18l-5.44 8.61c-0.99,1.58 -1.33,2.27 -3.14,3.13l-13.16 3.72c-0.33,0.09 -0.43,0.52 -0.06,0.94l5.05 5.73c0.81,0.91 2.05,0.81 3.33,0.47l6.06 -1.75 0.21 -0.11 0.01 0.01c0,0 1.41,-0.3 3.91,-1.09 2.36,-0.75 3.4,-2.16 4.54,-4.16l4.77 -7.78zm-21.98 17.94l-5.03 8.14c-4.68,7.58 -3.78,6.69 -18.06,10.55l-11.36 3.11 -14.43 3.84c-0.34,0.09 -0.57,0.59 -0.2,1.02l5.13 5.99c0.58,0.69 2.17,0.92 3.45,0.58l22.83 -6.21c16.37,-4.42 15.16,-5.14 22.73,-17.65 1.78,-2.94 1.62,-2.74 -0.05,-4.61l-4.37 -4.86c0.04,0.02 -0.37,-0.33 -0.64,0.1z"/>
  <g style="clip-path:url(#id4)">
   <g id="_1468198790352">
    <ellipse class="fil1" transform="matrix(0.457601 -0.410336 0.410336 0.457601 123.489 179.435)" rx="18.27" ry="7.52"/>
   </g>
  </g>
  <path class="fil12" d="M186.71 160.89c0.29,-0.53 0.48,-1.6 -0.21,-2.38l-4.91 -5.52c-0.27,-0.27 -0.67,-0.28 -0.96,0.18l-5.44 8.61c-0.99,1.58 -1.33,2.27 -3.14,3.13l-13.16 3.72c-0.33,0.09 -0.43,0.52 -0.06,0.94l5.05 5.73c0.81,0.91 2.05,0.81 3.33,0.47l6.06 -1.75 0.21 -0.11 0.01 0.01c0,0 1.41,-0.3 3.91,-1.09 2.36,-0.75 3.4,-2.16 4.54,-4.16l4.77 -7.78zm-21.98 17.94l-5.03 8.14c-4.68,7.58 -3.78,6.69 -18.06,10.55l-11.36 3.11 -14.43 3.84c-0.34,0.09 -0.57,0.59 -0.2,1.02l5.13 5.99c0.58,0.69 2.17,0.92 3.45,0.58l22.83 -6.21c16.37,-4.42 15.16,-5.14 22.73,-17.65 1.78,-2.94 1.62,-2.74 -0.05,-4.61l-4.37 -4.86c0.04,0.02 -0.37,-0.33 -0.64,0.1z"/>
  <path class="fil1" d="M120.43 119.37l9.22 42.72c0,0 0.5,1.68 -2.76,2.93 -3.27,1.24 -43.58,12.01 -43.87,11.94"/>
  <path class="fil13" d="M158.58 168.79l13.35 -3.89c0.08,-0.01 1.33,-0.26 2.39,-1.72 0.45,-0.62 1.73,-2.61 3.04,-4.69 1.28,-2.04 2.66,-4.26 3.28,-5.26l-0.26 -0.29c-0.6,0.97 -2.01,3.23 -3.34,5.35 -1.31,2.07 -2.58,4.05 -3.02,4.66 -1.01,1.39 -2.16,1.58 -2.17,1.58l0 0 -0.02 0.01 -13.35 3.89 0.1 0.36z"/>
  <path class="fil13" d="M116.02 204.73l36.57 -10.06 0 0c0.15,-0.03 2.69,-0.66 5.25,-4.35 2.61,-3.74 6.97,-11.27 6.98,-11.29l-0.23 -0.3c-0.02,0.03 -4.46,7.64 -7.06,11.37 -2.56,3.68 -5.02,4.21 -5.03,4.21l-0.01 0 -36.57 10.06 0.1 0.36z"/>
  <path class="fil108" d="M115.84 205.34c-0.16,0.04 -0.33,-0.05 -0.37,-0.22 -0.05,-0.16 0.05,-0.33 0.21,-0.38l37.12 -10.17 0.03 -0.01c0.25,-0.06 2.55,-0.71 4.94,-4.15 2.6,-3.73 7.14,-11.68 7.15,-11.71 0.08,-0.14 0.27,-0.2 0.42,-0.11 0.15,0.08 0.2,0.27 0.12,0.41 -0.01,0.03 -4.58,8.02 -7.18,11.76 -2.52,3.62 -5.03,4.33 -5.31,4.4l-0.01 0 -37.12 10.18z"/>
  <path class="fil109" d="M158.7 168.85c-0.1,0.02 -0.15,0.13 -0.12,0.23 0.03,0.1 0.13,0.16 0.23,0.13l12.45 -3.7c0.58,-0.18 1.11,-0.33 1.62,-0.57l0.01 -0.01c0.51,-0.24 0.99,-0.56 1.45,-1.06 0.8,-0.86 6.82,-10.69 6.84,-10.72 0.05,-0.09 0.02,-0.2 -0.07,-0.26 -0.08,-0.05 -0.2,-0.02 -0.26,0.07 -0.01,0.02 -6.01,9.82 -6.79,10.65 -0.42,0.46 -0.86,0.76 -1.33,0.98l-0.01 0c-0.48,0.23 -1,0.39 -1.57,0.55l-12.45 3.71z"/>
  <path class="fil110" d="M84.41 177.66l42.45 -11.68c4.08,-1.49 4.1,-2.3 3.16,-6l-9.01 -41.98 -43.83 12.33c-3.5,1.06 -3.4,1.9 -3.17,3.99l8.18 40.97c0.4,1.77 0.79,2.78 2.22,2.37z"/>
  <path class="fil18" d="M122.21 123.76c0.1,-1.63 1.24,-2.31 3.07,-2.35l28.33 0.79 1.51 1.68 2.61 -0.88c1.1,-0.37 0.13,-3.44 -1.81,-3.49l-31.1 -0.69c-3.49,-0.08 -3.53,0.49 -3.53,0.52l0.92 4.42z"/>
  <path class="fil111" d="M119.99 119.54l9.2 42.65c0.31,1.13 -1.72,2.1 -2.47,2.39 -1.32,0.5 -8.91,2.61 -17.4,4.93 -12.14,3.3 -26.07,7.02 -26.19,6.99 0.13,0.5 0.39,0.81 0.97,0.68 0.22,0.06 13.22,-3.43 25.46,-6.76 8.52,-2.32 16.14,-4.44 17.5,-4.96 2.98,-1.07 3.42,-2.39 3.05,-3.47l-9.22 -42.69 -0.08 0 -0.82 0.24z"/>
  <path class="fil112" d="M93.08 152.56c-0.57,-0.61 -14.03,-15.6 -14.37,-15.99 -1.24,-1.42 -0.97,-1.61 0.16,-3.4l2.22 -3.45c2.11,-3.26 2.19,-3.45 4.42,-4.28l6.38 -2.37c2.79,-1.04 2.78,-0.41 5.41,2.6l8.59 9.63c1.42,6.76 1.8,9.72 -0.24,11.84 -1.81,1.89 -5.54,3.14 -12.57,5.42z"/>
  <path class="fil113" d="M93.11 123.63c0,0 -8,2.41 -9.27,3.56 -1.28,1.14 -4.68,6.93 -4.68,6.93l9.65 -3.33c2.05,-0.67 1.87,-0.85 3.18,-3.04l1.77 -2.97c0.53,-0.88 0.17,-1.44 -0.65,-1.15z"/>
  <path class="fil37" d="M78.75 135.05c0.03,-0.01 10.23,-3.56 10.92,-3.79 0.37,-0.12 0.75,-0.32 1.15,-0.67 0.39,-0.34 0.8,-0.84 1.21,-1.55l0.17 -0.28c0.38,-0.67 2.86,-4.57 2.35,-5.26 0.01,0.42 -1.8,3.54 -2.68,5.07l-0.16 0.28c-0.4,0.68 -0.78,1.14 -1.14,1.46 -0.35,0.31 -0.7,0.49 -1.02,0.59 -0.69,0.23 -10.9,3.78 -10.93,3.79 -0.07,0.14 -0.04,0.26 0.13,0.36z"/>
  <path class="fil114" d="M93.04 154.13l-0.14 -1.38c0,0 9.25,-2.93 10.28,-3.7 1.02,-0.76 3.14,-1.41 3.74,-3.87 0.6,-2.46 -0.18,-5.97 -0.32,-6.92 -0.13,-0.94 -0.62,-3.14 -0.62,-3.14l1.05 0.4 1.15 8.11c0,0 0.66,2.89 -2.12,5.23 -2.78,2.33 -13.02,5.27 -13.02,5.27z"/>
 </g>
</svg>
